<?xml version="1.0" encoding="iso-8859-1"?>
<!-- Generator: Adobe Illustrator 19.0.0, SVG Export Plug-In . SVG Version: 6.00 Build 0)  -->
<svg version="1.1" id="Layer_1" xmlns="http://www.w3.org/2000/svg" xmlns:xlink="http://www.w3.org/1999/xlink" x="0px" y="0px"
	 viewBox="0 0 300 300" style="enable-background:new 0 0 300 300;" xml:space="preserve">
<g>
	<g>
		<path id="XMLID_29_" style="fill:#3F1722;" d="M222.28,235.581c0,38.586-31.969,63.559-71.406,63.559
			c-39.436,0-71.405-24.974-71.405-63.559c0-38.583,31.969-76.17,71.405-76.17C190.311,159.411,222.28,196.997,222.28,235.581z"/>
		<path id="XMLID_28_" style="fill:#5C2938;" d="M93.451,222.588l57.994,59.536l56.855-61.244
			C208.299,220.881,161.844,221.128,93.451,222.588z"/>
		<path id="XMLID_27_" style="fill:#5C2938;" d="M149.299,298.965c0.311,0.002,0.618,0.016,0.93,0.016
			c0.744,0,1.482-0.026,2.222-0.045l-2.414-59.381L149.299,298.965z"/>
		
			<rect id="XMLID_26_" x="176.729" y="258.121" transform="matrix(0.9916 -0.1291 0.1291 0.9916 -32.1312 26.7747)" style="fill:#5C2938;" width="27.439" height="6.19"/>
	</g>
	<path id="XMLID_25_" style="fill:#E37C2F;" d="M151.025,0.963V0.952c-0.015,0-0.032-0.001-0.047-0.001
		c-0.034,0.001-0.068,0.004-0.103,0.004c-0.035,0-0.068-0.002-0.102-0.004c-0.015,0-0.033,0.001-0.047,0.001v0.011
		C74.917,3.446,35.779,45.535,35.779,114.229c0,25.305,2.546,50.663,14.35,72.346c16.225,29.805,46.691,46.923,67.964,58.858
		c19.313,10.837,30.903,17.439,32.633,18.426v0.108c0.016,0.014,0.047,0.035,0.047,0.035s0.052-0.031,0.102-0.061
		c0.049,0.031,0.103,0.061,0.103,0.061s0.031-0.021,0.047-0.035v-0.108c1.73-0.987,13.321-7.589,32.632-18.426
		c21.274-11.935,51.74-29.053,67.965-58.858c11.804-21.684,14.349-47.041,14.349-72.346C265.971,45.535,226.833,3.446,151.025,0.963
		z"/>
	<g>
		<path id="XMLID_24_" style="fill:#D16A01;" d="M104.492,47.294c0,0,3.714-3.714-1.459-10.216
			c-5.175-6.501-18.971-14.197-26.536-4.512c-7.563,9.685,5.045,19.144,19.372,17.779C101.44,49.815,104.492,47.294,104.492,47.294z
			"/>
		<path id="XMLID_23_" style="fill:#D16A01;" d="M197.258,49.132c0,0-3.715-3.716,1.459-10.217
			c5.175-6.501,18.971-14.196,26.536-4.51c7.563,9.684-5.045,19.143-19.37,17.778C200.31,51.652,197.258,49.132,197.258,49.132z"/>
		<path id="XMLID_22_" style="fill:#FFAE5E;" d="M204.457,45.55c0,0-1.392-1.392,0.548-3.829c1.938-2.437,7.108-5.32,9.943-1.691
			c2.835,3.63-1.89,7.173-7.259,6.663C205.602,46.495,204.457,45.55,204.457,45.55z"/>
		<path id="XMLID_21_" style="fill:#FFAE5E;" d="M95.433,43.712c0,0,1.394-1.392-0.545-3.829c-1.938-2.436-7.11-5.319-9.945-1.691
			c-2.833,3.629,1.891,7.173,7.261,6.662C94.291,44.658,95.433,43.712,95.433,43.712z"/>
	</g>
	<path id="XMLID_20_" style="fill:#FFAE5E;" d="M151.376,25.955v-0.005c-0.134,0-0.266-0.005-0.4-0.005c-0.033,0-0.066,0-0.1,0
		c-0.034,0-0.067,0-0.1,0c-0.134,0-0.267,0.005-0.402,0.005v0.005c-33.77,0.173-63.528,14.767-60.993,53.039
		c2.788,42.082,17.854,48.041,25.91,75.016c7.691,25.753,18.611,41.961,35.083,42.354v0.005c0.134,0.002,0.267,0.031,0.402,0.031
		c0.033,0,0.066-0.007,0.1-0.007c0.034,0,0.067,0.007,0.1,0.007c0.134,0,0.266-0.028,0.4-0.031v-0.005
		c16.472-0.393,27.392-16.6,35.084-42.354c8.057-26.975,23.122-32.934,25.91-75.016C214.906,40.722,185.147,26.128,151.376,25.955z"
		/>
	<g>
		<ellipse id="XMLID_19_" style="fill:#D16A01;" cx="176.128" cy="152.422" rx="25.61" ry="20.449"/>
		<ellipse id="XMLID_18_" style="fill:#D16A01;" cx="125.623" cy="152.422" rx="25.61" ry="20.449"/>
	</g>
	<g>
		<path id="XMLID_17_" style="fill:#5C2938;" d="M138.221,139.426c0,0,5.351,9.174-12.614,13.76
			c-17.967,4.588-34.401,3.632-43.959-1.91c-9.556-5.542-13.377-20.261-3.631-26.95c9.746-6.688,15.671,6.692,8.791,8.794
			c0,0,0.382-3.633-2.867-2.869c-3.249,0.767-4.397,4.014-2.485,8.601c1.912,4.588,13.847,8.077,23.701,6.501
			C124.271,142.292,132.295,128.912,138.221,139.426z"/>
		<path id="XMLID_16_" style="fill:#5C2938;" d="M163.528,139.426c0,0-5.351,9.174,12.614,13.76
			c17.965,4.588,34.401,3.632,43.959-1.91c9.556-5.542,13.376-20.261,3.631-26.95c-9.746-6.688-15.671,6.692-8.791,8.794
			c0,0-0.382-3.633,2.867-2.869c3.248,0.767,4.396,4.014,2.485,8.601c-1.913,4.588-13.848,8.077-23.701,6.501
			C177.48,142.292,169.454,128.912,163.528,139.426z"/>
	</g>
	<path id="XMLID_15_" style="fill:#D16A01;" d="M196.724,39.635l1.092-0.048l-0.789-1.073
		c-11.415-9.204-28.016-14.938-45.587-15.026h-1.002c-18.112,0.092-39.424,5.522-46.502,16.26
		c5.077,0.835,34.741,7.022,37.319,37.959c2.821,33.842-6.11,53.583-6.11,53.583c0.435,12.413,12.966,5.259,14.808,4.138
		c1.841,1.121,14.371,8.274,14.807-4.138c0,0-8.93-19.741-6.11-53.583C161.471,43.865,196.724,39.635,196.724,39.635z"/>
	<path id="XMLID_14_" style="fill:#3F1722;" d="M169.757,136.096c0-6.132-9.725-7.397-18.882-7.397
		c-9.158,0-18.882,1.265-18.882,7.397c0,6.13,9.724,17.325,18.882,17.325C160.032,153.421,169.757,142.226,169.757,136.096z"/>
	<path style="fill:#FFFFFF;" d="M200.863,102.289c-0.147-1.504-1.411-2.693-2.951-2.693h-27.766c-0.024,0-0.045,0.006-0.068,0.007
		c-0.711-0.193-10.032-2.672-18.925-2.672c-9.167,0-18.837,2.691-18.837,2.691l0.015,0.074c-0.233-0.059-0.474-0.1-0.726-0.1
		h-27.766c-1.54,0-2.804,1.189-2.95,2.693H96.37v3.206h4.488v3.945c0,1.639,1.34,2.98,2.98,2.98h27.766
		c1.577,0,2.864-1.244,2.962-2.796c0.369-1.701,2.815-9.497,16.755-9.497c11.92,0,15.094,6.67,15.846,9.021v0.292
		c0,1.639,1.34,2.98,2.98,2.98h27.766c1.639,0,2.981-1.34,2.981-2.98v-3.945h4.488v-3.206H200.863z M131.604,109.44h-27.766v-6.865
		h27.766V109.44z M197.912,109.44h-27.766v-6.865h27.766V109.44z"/>
	<g>
		<g>
			<path id="XMLID_10_" style="opacity:0.49;fill:#442282;" d="M108.033,76.839c0,0,18.893-5.137,19.567,14.819
				C127.6,91.658,108.284,101.554,108.033,76.839z"/>
			<g>
				<defs>
					<path id="XMLID_8_" d="M108.033,76.839c0,0,18.893-5.137,19.567,14.819C127.6,91.658,108.284,101.554,108.033,76.839z"/>
				</defs>
				<use xlink:href="#XMLID_8_"  style="overflow:visible;fill:#FFFFFF;"/>
				<clipPath id="XMLID_31_">
					<use xlink:href="#XMLID_8_"  style="overflow:visible;"/>
				</clipPath>
				<path id="XMLID_9_" style="clip-path:url(#XMLID_31_);fill:#3F1722;" d="M110.336,81.328c0.851-5.194,5.748-8.716,10.94-7.868
					c5.195,0.852,8.716,5.748,7.867,10.941c-0.848,5.195-5.747,8.716-10.938,7.868C113.01,91.419,109.488,86.523,110.336,81.328z"/>
			</g>
			<path id="XMLID_7_" style="fill:#FFFFFF;" d="M118.692,81.619c0.22-1.342-0.692-2.614-2.04-2.835
				c-1.346-0.219-2.616,0.694-2.837,2.04c-0.219,1.346,0.694,2.617,2.042,2.838C117.201,83.88,118.473,82.968,118.692,81.619z"/>
			<circle id="XMLID_6_" style="fill:#FFFFFF;" cx="121.204" cy="87.038" r="1.765"/>
		</g>
		<g>
			<path id="XMLID_5_" style="fill:#FFFFFF;" d="M193.717,76.839c0,0-18.893-5.137-19.567,14.819
				C174.15,91.658,193.466,101.554,193.717,76.839z"/>
			<g>
				<defs>
					<path id="XMLID_3_" d="M193.717,76.839c0,0-18.893-5.137-19.567,14.819C174.15,91.658,193.466,101.554,193.717,76.839z"/>
				</defs>
				<clipPath id="XMLID_32_">
					<use xlink:href="#XMLID_3_"  style="overflow:visible;"/>
				</clipPath>
				<path id="XMLID_4_" style="clip-path:url(#XMLID_32_);fill:#3F1722;" d="M191.413,81.328c-0.853-5.194-5.748-8.716-10.941-7.868
					c-5.194,0.852-8.715,5.748-7.866,10.941c0.847,5.195,5.747,8.716,10.938,7.868C188.74,91.419,192.26,86.523,191.413,81.328z"/>
			</g>
			<path id="XMLID_2_" style="fill:#FFFFFF;" d="M183.059,81.619c-0.221-1.342,0.691-2.614,2.039-2.835
				c1.346-0.219,2.615,0.694,2.837,2.04c0.219,1.346-0.694,2.617-2.041,2.838C184.549,83.88,183.277,82.968,183.059,81.619z"/>
			<circle id="XMLID_1_" style="fill:#FFFFFF;" cx="180.546" cy="87.038" r="1.765"/>
		</g>
	</g>
</g>
</svg>
