<?xml version="1.0" encoding="iso-8859-1"?>
<!-- Generator: Adobe Illustrator 19.0.0, SVG Export Plug-In . SVG Version: 6.00 Build 0)  -->
<svg version="1.1" id="Layer_1" xmlns="http://www.w3.org/2000/svg" xmlns:xlink="http://www.w3.org/1999/xlink" x="0px" y="0px"
	 viewBox="0 0 300 300" style="enable-background:new 0 0 300 300;" xml:space="preserve">
<g id="XMLID_39_">
	<path id="XMLID_37_" style="fill:#5C2938;" d="M232.986,226.834c0,44.42-36.801,73.166-82.201,73.166
		c-45.397,0-82.195-28.746-82.195-73.166c0-44.415,36.799-87.68,82.195-87.68C196.184,139.153,232.986,182.419,232.986,226.834z"/>
	<path id="XMLID_36_" style="fill:#FFFFFF;" d="M108.878,170.35l42.563,98.832l41.251-100.801
		C192.692,168.382,147.293,138.917,108.878,170.35z"/>
	<path id="XMLID_35_" style="fill:#3F1722;" d="M150.785,300c1.009,0,2.004-0.03,3.002-0.06l-2.346-93.274l-3.628,93.274
		C148.801,299.97,149.787,300,150.785,300z"/>
	<path id="XMLID_34_" style="fill:#E37C2F;" d="M211.832,237.497L211.832,237.497l-5.884-12.236c-2.164-4.498-5.702-4.501-7.868,0
		l-3.105,6.456l0,0l-0.911,1.89l-1.871,3.891h-0.003l-3.934,8.18h9.08h9.354h9.078L211.832,237.497z"/>
	<path id="XMLID_33_" style="fill:#D31E25;" d="M159.489,227.883c0,19.587-3.896,32.268-8.704,32.268
		c-4.807,0-8.703-12.681-8.703-32.268c0-19.595,3.896-38.678,8.703-38.678C155.593,189.205,159.489,208.288,159.489,227.883z"/>
	<path id="XMLID_32_" style="fill:#D31E25;" d="M160.625,186.548c0,7.586-4.403,12.491-9.84,12.491
		c-5.434,0-9.839-4.905-9.839-12.491c0-7.584,4.406-14.972,9.839-14.972C156.221,171.576,160.625,178.964,160.625,186.548z"/>
	<polygon id="XMLID_31_" style="fill:#E8DFCE;" points="151.558,182.042 133.926,204.909 110.787,171.302 133.926,166.614 	"/>
	<polygon id="XMLID_30_" style="fill:#E8DFCE;" points="150.457,182.042 168.089,204.909 191.228,171.302 168.089,166.614 	"/>
	<g id="XMLID_73_">
		<g id="XMLID_76_">
			<polygon id="XMLID_29_" style="fill:#3F1722;" points="151.008,251.323 103.626,154.906 72.497,164.825 105.421,211.034 
				127.316,216.888 114.881,224.309 151.008,275.017 			"/>
		</g>
		<g id="XMLID_74_">
			<polygon id="XMLID_28_" style="fill:#3F1722;" points="150.457,251.323 197.838,154.906 228.97,164.825 196.043,211.034 
				174.146,216.888 186.586,224.309 150.457,275.017 			"/>
		</g>
	</g>
	<path id="XMLID_27_" style="fill:#A06F60;" d="M63.932,18.497c-5.987-2.061-12.011-3.357-18.153-4.764
		c-6.356-1.453-13.991-2.381-19.942-2.679c-2.622-0.13-3.178,1.123-3.574,4.165c-0.282,2.158,0.946,5.119,1.711,7.144
		c2.08,5.512,4.189,11.434,6.987,16.675c3.281,6.136,6.54,13.755,10.946,19.042l1.787-1.193c1.293-2.578,3.132-4.184,5.06-6.233
		c3.107-3.303,5.764-6.602,9.224-9.525c4.292-3.62,8.101-7.852,12.502-11.336c2.451-1.947,5.092-3.026,7.098-5.417
		C75.382,20.943,67.671,19.783,63.932,18.497z"/>
	<path id="XMLID_26_" style="fill:#FFD1BA;" d="M58.938,30.037c-4.753-0.895-9.715-2.313-14.647-2.614
		c-2.259-0.135-5.689-0.534-5.944,1.773c-0.211,1.909,5.108,10.997,6.621,13.342c1.044,1.611,2.516,4.821,4.083,5.721v-1.491
		c-0.141,0.236-0.333,0.317-0.572,0.252c3.199-2.926,6.941-6.526,10.466-9.701c1.052-0.944,4.62-3.715,4.704-5.116
		C63.78,30.032,60.418,30.316,58.938,30.037z"/>
	<path id="XMLID_25_" style="fill:#A06F60;" d="M236.768,18.497c5.992-2.061,12.014-3.357,18.155-4.764
		c6.358-1.453,13.988-2.381,19.942-2.679c2.619-0.13,3.175,1.123,3.571,4.165c0.282,2.158-0.946,5.119-1.708,7.144
		c-2.077,5.512-4.189,11.434-6.99,16.675c-3.278,6.136-6.537,13.755-10.943,19.042l-1.79-1.193c-1.29-2.578-3.129-4.184-5.057-6.233
		c-3.107-3.303-5.767-6.602-9.227-9.525c-4.292-3.62-8.099-7.852-12.5-11.336c-2.454-1.947-5.092-3.026-7.098-5.417
		C225.318,20.943,233.029,19.783,236.768,18.497z"/>
	<path id="XMLID_24_" style="fill:#FFD1BA;" d="M241.762,30.037c4.753-0.895,9.718-2.313,14.647-2.614
		c2.261-0.135,5.691-0.534,5.943,1.773c0.212,1.909-5.106,10.997-6.618,13.342c-1.041,1.611-2.516,4.821-4.083,5.721v-1.491
		c0.144,0.236,0.333,0.317,0.569,0.252c-3.197-2.926-6.941-6.526-10.463-9.701c-1.052-0.944-4.62-3.715-4.707-5.116
		C236.923,30.032,240.282,30.316,241.762,30.037z"/>
	<path id="XMLID_23_" style="fill:#CCB5A7;" d="M276.004,68.739C253.59,37.867,214.085,1.275,150.736,1.196V1.185
		c-0.133,0-0.255,0.006-0.385,0.006c-0.13,0-0.255-0.006-0.382-0.006v0.011C86.618,1.275,47.113,37.867,24.696,68.739
		C14.053,83.397,0.7,89.044,0.7,89.044s22.778,23.117,52.79,50.201c25.639,23.142,54.992,48.558,96.479,48.891v0.011
		c0.127,0,0.255-0.006,0.382-0.006s0.255,0.006,0.385,0.006v-0.011c41.487-0.333,70.837-25.75,96.476-48.891
		C277.222,112.162,300,89.044,300,89.044S286.649,83.397,276.004,68.739z"/>
	<g id="XMLID_62_">
		<path id="XMLID_22_" style="fill:#FFFFFF;" d="M70.995,70.022c0,0,34.719-12.03,38.521,25.237
			C109.516,95.259,74.615,116.242,70.995,70.022z"/>
		<g id="XMLID_63_">
			<defs>
				<path id="XMLID_19_" d="M70.995,70.022c0,0,34.719-12.03,38.521,25.237C109.516,95.259,74.615,116.242,70.995,70.022z"/>
			</defs>
			<clipPath id="XMLID_40_">
				<use xlink:href="#XMLID_19_"  style="overflow:visible;"/>
			</clipPath>
			<path id="XMLID_21_" style="clip-path:url(#XMLID_40_);fill:#4A5F71;" d="M74.01,76.708c0.925-9.834,9.639-17.047,19.47-16.119
				c9.837,0.925,17.046,9.636,16.125,19.473c-0.927,9.831-9.655,17.041-19.476,16.119C80.295,95.254,73.083,86.536,74.01,76.708z"/>
			<path id="XMLID_20_" style="clip-path:url(#XMLID_40_);fill:#FFFFFF;" d="M90.544,64.721c0,0-2.156,6.082-2.359,11.472
				c-0.174,4.618,1.489,11.805,1.489,11.805S95.663,77.244,90.544,64.721z"/>
		</g>
	</g>
	<path id="XMLID_18_" style="fill:#A06F60;" d="M165.963,134.24c0-8.554-6.863-10.691-15.327-10.691
		c-8.462,0-15.325,2.136-15.325,10.691c0,8.551,6.863,22.908,15.325,22.908C159.101,157.148,165.963,142.792,165.963,134.24z"/>
	<path id="XMLID_17_" style="fill:#FFD1BA;" d="M146.875,121.613c0,0-7.359-10.843-26.718-4.647
		c-19.365,6.198-20.91,24.394-12.394,33.689c8.519,9.294,26.411,2.823,33.304-4.647
		C155.007,130.908,146.875,121.613,146.875,121.613z"/>
	<path id="XMLID_16_" style="fill:#3F1722;" d="M125.575,119.677c0,0-4.644,1.161-2.321,4.645c2.321,3.487,6.583,0.778,9.295-0.385
		c2.708-1.163,16.266-6.974,17.423,3.487c1.161,10.455-24.397,9.682-28.269,5.42c0,0-6.502-3.839-3.094-9.68
		C121.318,118.514,125.575,119.677,125.575,119.677z"/>
	<path id="XMLID_15_" style="fill:#A06F60;" d="M34.972,55.757c-3.761,4.36-7.185,8.725-10.276,12.982
		C14.053,83.397,0.7,89.044,0.7,89.044s14.712,14.923,36.045,34.828C24.227,94.361,29.712,69.409,34.972,55.757z"/>
	<g id="XMLID_52_">
		<path id="XMLID_14_" style="opacity:0.49;fill:#442282;" d="M229.708,70.022c0,0-34.719-12.03-38.52,25.237
			C191.187,95.259,226.088,116.242,229.708,70.022z"/>
		<g id="XMLID_53_">
			<defs>
				<path id="XMLID_11_" d="M229.708,70.022c0,0-34.719-12.03-38.52,25.237C191.187,95.259,226.088,116.242,229.708,70.022z"/>
			</defs>
			<use xlink:href="#XMLID_11_"  style="overflow:visible;fill:#FFFFFF;"/>
			<clipPath id="XMLID_42_">
				<use xlink:href="#XMLID_11_"  style="overflow:visible;"/>
			</clipPath>
			<path id="XMLID_13_" style="clip-path:url(#XMLID_42_);fill:#4A5F71;" d="M226.69,76.708c-0.922-9.834-9.639-17.047-19.47-16.119
				c-9.834,0.925-17.047,9.636-16.122,19.473c0.927,9.831,9.653,17.041,19.473,16.119C220.408,95.254,227.617,86.536,226.69,76.708z
				"/>
			<path id="XMLID_12_" style="clip-path:url(#XMLID_42_);fill:#FFFFFF;" d="M210.159,64.721c0,0,2.153,6.082,2.359,11.472
				c0.174,4.618-1.486,11.805-1.486,11.805S205.037,77.244,210.159,64.721z"/>
		</g>
	</g>
	<path id="XMLID_10_" style="fill:#A06F60;" d="M276.004,68.739c-3.088-4.257-6.515-8.622-10.273-12.982
		c5.263,13.652,10.742,38.604-1.773,68.115C285.291,103.968,300,89.044,300,89.044S286.649,83.397,276.004,68.739z"/>
	<path id="XMLID_9_" style="fill:#A06F60;" d="M150.736,1.196V1.185c-0.133,0-0.255,0.006-0.385,0.006
		c-0.13,0-0.255-0.006-0.382-0.006v0.011c-29.912,0.038-54.496,8.215-74.487,20.086c9.761,0.089,56.619,4.956,65.973,89.494h7.334
		h3.124h7.331c9.357-84.538,56.212-89.405,65.976-89.494C205.232,9.412,180.643,1.234,150.736,1.196z"/>
	<path id="XMLID_8_" style="fill:#FFD1BA;" d="M153.827,121.613c0,0,7.359-10.843,26.718-4.647
		c19.362,6.198,20.913,24.394,12.391,33.689c-8.516,9.294-26.409,2.823-33.301-4.647
		C145.693,130.908,153.827,121.613,153.827,121.613z"/>
	<path id="XMLID_7_" style="fill:#3F1722;" d="M175.125,119.677c0,0,4.645,1.161,2.324,4.645c-2.324,3.487-6.586,0.778-9.294-0.385
		c-2.711-1.163-16.266-6.974-17.423,3.487c-1.163,10.455,24.397,9.682,28.266,5.42c0,0,6.505-3.839,3.097-9.68
		C179.385,118.514,175.125,119.677,175.125,119.677z"/>
	<path id="XMLID_6_" style="fill:#19173E;" d="M169.353,113.111c0-5.469-9.877-6.597-19.18-6.597c-9.3,0-19.177,1.128-19.177,6.597
		c0,5.463,9.877,15.439,19.177,15.439C159.475,128.549,169.353,118.574,169.353,113.111z"/>
	<path id="XMLID_5_" style="fill:#19173E;" d="M151.677,149.315c0,0-10.479,0.89-17.83,8.02
		c-7.353,7.131-11.366,15.154-14.484,12.48c-3.123-2.676-4.238-8.47-4.238-8.47s-0.667-3.343-6.236-2.673
		c-5.575,0.67-9.807,4.232-8.251,8.692c1.565,4.455,3.346,18.719,17.163,17.602c0,0,6.909-0.664,11.369-9.579
		c4.452-8.918,8.465-20.059,23.844-24.516C153.014,150.872,154.123,149.09,151.677,149.315z"/>
	<path id="XMLID_43_" style="fill:#19173E;" d="M241.274,83.871h-3.731c-0.285,0-0.54,0.106-0.803,0.184
		c-3.495-6.483-10.349-10.903-18.22-10.903c-11.401,0-20.682,9.281-20.682,20.685s9.281,20.685,20.682,20.685
		c11.407,0,20.69-9.281,20.69-20.685c0-0.943-0.084-1.86-0.209-2.768h2.272c1.765,0,3.197-1.608,3.197-3.6
		C244.471,85.482,243.04,83.871,241.274,83.871z M218.521,110.044c-9.528,0-17.279-7.269-17.279-16.206
		c0-8.934,7.752-16.206,17.279-16.206c9.536,0,17.285,7.272,17.285,16.206C235.806,102.775,228.057,110.044,218.521,110.044z"/>
	<g id="XMLID_41_">
		<path id="XMLID_2_" style="fill:#4A5F71;" d="M194.986,248.204c-0.613,0-1.136-0.464-1.204-1.084
			c-0.065-0.662,0.418-1.258,1.079-1.329c0.135-0.014,13.774-1.651,28.67-18.275c20.446-22.824,17.675-139.104,17.646-140.276
			c-0.019-0.667,0.51-1.22,1.177-1.239c0.662,0.095,1.226,0.513,1.242,1.179c0.125,4.824,2.823,118.414-18.264,141.948
			c-15.574,17.385-29.632,19.007-30.223,19.066C195.07,248.202,195.027,248.204,194.986,248.204z"/>
	</g>
	<rect id="XMLID_1_" x="186.318" y="244.235" style="fill:#3F1722;" width="31.585" height="7.123"/>
</g>
</svg>
