<?xml version="1.0" encoding="iso-8859-1"?>
<!-- Generator: Adobe Illustrator 19.0.0, SVG Export Plug-In . SVG Version: 6.00 Build 0)  -->
<svg version="1.1" id="Layer_1" xmlns="http://www.w3.org/2000/svg" xmlns:xlink="http://www.w3.org/1999/xlink" x="0px" y="0px"
	 viewBox="0 0 300 300" style="enable-background:new 0 0 300 300;" xml:space="preserve">
<g id="XMLID_37_">
	<g id="XMLID_67_">
		<path id="XMLID_35_" style="fill:#A06F60;" d="M233.284,223.554c0,46.348-36.069,76.347-80.57,76.347
			c-44.493,0-80.565-29.999-80.565-76.347c0-46.348,36.071-91.497,80.565-91.497C197.215,132.057,233.284,177.206,233.284,223.554z"
			/>
		<path id="XMLID_34_" style="fill:#FFFFFF;" d="M110.695,180.735l41.719,86.257l40.432-88.306
			C192.846,178.686,148.347,147.938,110.695,180.735z"/>
		<path id="XMLID_33_" style="fill:#3F1722;" d="M151.582,299.88c0.346,0.003,0.694,0.021,1.047,0.021
			c0.842,0,1.671-0.032,2.506-0.053l-2.727-68.047L151.582,299.88z"/>
		
			<rect id="XMLID_32_" x="183.799" y="257.85" transform="matrix(0.9839 -0.1786 0.1786 0.9839 -43.5118 39.7966)" style="fill:#3F1722;" width="30.959" height="7.436"/>
		<path id="XMLID_31_" style="fill:#E37B62;" d="M143.136,228.726c0,8.523,4.289,33.345,9.583,33.345s9.586-24.822,9.586-33.345
			c0-8.52-4.292-25.381-9.586-25.381S143.136,220.205,143.136,228.726z"/>
		<path id="XMLID_30_" style="fill:#E37B62;" d="M162.305,192.484c0-5.635-4.295-10.204-9.586-10.204
			c-5.294,0-9.583,4.568-9.583,10.204s4.289,16.785,9.583,16.785C158.01,209.269,162.305,198.12,162.305,192.484z"/>
		<polygon id="XMLID_29_" style="fill:#E8DFCE;" points="113.767,184.529 128.602,217.109 151.172,185.174 		"/>
		<path id="XMLID_28_" style="fill:#3F1722;" d="M153.019,274.496v-13.888l-38.341-85.925l-10.848-22.582
			c-10.8,9.812-19.443,22.539-24.955,36.628l17.556,17.5l20.118,1.009l-9.458,9.615L153.019,274.496z"/>
		<polygon id="XMLID_27_" style="fill:#E8DFCE;" points="191.669,184.529 176.831,217.109 154.26,185.174 		"/>
		<path id="XMLID_26_" style="fill:#3F1722;" d="M226.56,188.728c-5.512-14.088-14.157-26.814-24.955-36.627l-10.848,22.582
			l-38.343,85.925v13.888l45.936-57.643l-9.464-9.615l20.118-1.009L226.56,188.728z"/>
		<path id="XMLID_25_" style="fill:#3F1722;" d="M139.697,282.52c0-2.477,2.012-4.485,4.486-4.485c2.477,0,4.489,2.008,4.489,4.485
			c0,2.477-2.012,4.486-4.489,4.486C141.709,287.007,139.697,284.997,139.697,282.52z"/>
	</g>
	<path id="XMLID_24_" style="fill:#A06F60;" d="M251.951,108.416c-16.612-43.19-27.503-66.884-36.135-88.456
		c-8.302-20.764-45.649-18.716-62.597-18.716c-0.17,0-0.337,0.008-0.505,0.015c-0.165-0.007-0.332-0.015-0.497-0.015
		c-16.953,0-54.3-2.048-62.605,18.716c-8.624,21.573-19.515,45.267-36.127,88.456c-9.852,25.607-0.47,49.309,22.425,63.537
		c20.458,12.717,52.926,17.443,76.307,17.443c0.165,0,0.332-0.007,0.497-0.011c0.168,0.004,0.335,0.011,0.505,0.011
		c23.381,0,55.844-4.726,76.307-17.443C252.418,157.724,261.797,134.023,251.951,108.416z"/>
	
		<ellipse id="XMLID_23_" transform="matrix(0.8953 -0.4454 0.4454 0.8953 -57.1396 69.5902)" style="fill:#CCB5A7;" cx="119.509" cy="156.38" rx="55.234" ry="37.583"/>
	<g id="XMLID_58_">
		<path id="XMLID_22_" style="opacity:0.49;fill:#442282;" d="M85.947,88.497c0,0,23.631-18.206,36.164,9.516
			C122.112,98.012,100.652,123.165,85.947,88.497z"/>
		<g id="XMLID_61_">
			<defs>
				<path id="XMLID_20_" d="M85.947,88.497c0,0,23.631-18.206,36.164,9.516C122.112,98.012,100.652,123.165,85.947,88.497z"/>
			</defs>
			<use xlink:href="#XMLID_20_"  style="overflow:visible;fill:#FFFFFF;"/>
			<clipPath id="XMLID_38_">
				<use xlink:href="#XMLID_20_"  style="overflow:visible;"/>
			</clipPath>
			<path id="XMLID_21_" style="clip-path:url(#XMLID_38_);fill:#19173E;" d="M91.799,93.484c-1.81-7.812,3.04-15.615,10.843-17.434
				c7.811-1.818,15.611,3.036,17.431,10.842c1.82,7.809-3.032,15.615-10.838,17.434C101.42,106.145,93.625,101.293,91.799,93.484z"
				/>
		</g>
		<path id="XMLID_19_" style="fill:#FFFFFF;" d="M103.737,89.042c-0.468-2.018-2.493-3.279-4.518-2.809
			c-2.02,0.472-3.28,2.497-2.812,4.52c0.473,2.023,2.493,3.285,4.526,2.812C102.956,93.092,104.208,91.07,103.737,89.042z"/>
		<path id="XMLID_18_" style="fill:#FFFFFF;" d="M113.044,94.607c-0.34-1.447-1.783-2.344-3.234-2.009
			c-1.443,0.339-2.344,1.782-2.006,3.229c0.335,1.446,1.781,2.345,3.234,2.006C112.478,97.497,113.382,96.054,113.044,94.607z"/>
	</g>
	<path id="XMLID_17_" style="opacity:0.49;fill:#442282;" d="M176.244,122.42c0-7.46-11.831-9-22.975-9
		c-11.14,0-22.969,1.54-22.969,9c0,7.457,11.829,21.076,22.969,21.076C164.413,143.496,176.244,129.877,176.244,122.42z"/>
	<path id="XMLID_16_" style="fill:#CCB5A7;" d="M136.473,131.781c-9.246,18.586,5.4,44.663,32.71,58.249
		c27.317,13.587,56.952,9.537,66.192-9.05c9.246-18.584-5.403-44.662-32.715-58.249
		C175.348,109.146,145.716,113.198,136.473,131.781z"/>
	<path id="XMLID_15_" style="fill:#19173E;" d="M204.803,139.043c0,0-2.767,9.882-17.391,7.906
		c-14.63-1.977-16.995-6.325-19.767,0.791c-2.764,7.114,16.416,8.446,26.485,5.929C208.358,150.112,204.803,139.043,204.803,139.043
		z"/>
	<path id="XMLID_14_" style="fill:#CCB5A7;" d="M173.756,118.488c0,0-20.16-2.37-3.162-52.179
		c11.088-32.488,29.571-46.807,41.086-52.839C198.881-0.337,168.144,1.243,153.219,1.243c-0.17,0-0.337,0.008-0.505,0.015
		c-0.165-0.007-0.332-0.015-0.497-0.015c-14.904,0-45.575-1.577-58.408,12.159c11.507,5.998,30.084,20.307,41.211,52.907
		c16.995,49.809-3.165,52.179-3.165,52.179h18.582h4.744H173.756z"/>
	<g id="XMLID_47_">
		<path id="XMLID_13_" style="fill:#FFFFFF;" d="M219.488,88.497c0,0-23.636-18.206-36.172,9.516
			C183.316,98.012,204.781,123.165,219.488,88.497z"/>
		<g id="XMLID_50_">
			<defs>
				<path id="XMLID_11_" d="M219.488,88.497c0,0-23.636-18.206-36.172,9.516C183.316,98.012,204.781,123.165,219.488,88.497z"/>
			</defs>
			<clipPath id="XMLID_39_">
				<use xlink:href="#XMLID_11_"  style="overflow:visible;"/>
			</clipPath>
			<path id="XMLID_12_" style="clip-path:url(#XMLID_39_);fill:#19173E;" d="M213.631,93.484
				c1.815-7.812-3.035-15.615-10.843-17.434c-7.805-1.818-15.611,3.036-17.434,10.842c-1.815,7.809,3.038,15.615,10.845,17.434
				C204.008,106.145,211.81,101.293,213.631,93.484z"/>
		</g>
		<path id="XMLID_10_" style="fill:#FFFFFF;" d="M201.693,89.042c0.47-2.018,2.493-3.279,4.523-2.809
			c2.017,0.472,3.28,2.497,2.812,4.52c-0.473,2.023-2.498,3.285-4.526,2.812C202.48,93.092,201.223,91.07,201.693,89.042z"/>
		<path id="XMLID_9_" style="fill:#FFFFFF;" d="M192.391,94.607c0.332-1.447,1.783-2.344,3.226-2.009
			c1.448,0.339,2.349,1.782,2.014,3.229c-0.34,1.446-1.786,2.345-3.234,2.006C192.958,97.497,192.054,96.054,192.391,94.607z"/>
	</g>
	<path id="XMLID_8_" style="fill:#3F1722;" d="M129.192,122.42c0-7.46,11.831-9,22.972-9c11.14,0,22.972,1.54,22.972,9
		c0,7.457-11.832,21.076-22.972,21.076C141.023,143.496,129.192,129.877,129.192,122.42z"/>
	<path id="XMLID_7_" style="fill:#19173E;" d="M149.942,178.725c0,0-21.795,1.852-37.092,16.69
		c-15.3,14.836-23.647,31.53-30.137,25.966c-6.495-5.565-8.81-17.618-8.81-17.618s-1.39-6.955-12.982-5.565
		c-11.59,1.393-20.397,8.809-17.157,18.082c3.247,9.274,6.96,38.951,35.702,36.63c0,0,14.375-1.391,23.647-19.939
		c9.27-18.546,17.62-41.729,49.609-51.002C152.722,181.968,155.042,178.261,149.942,178.725z"/>
	<path id="XMLID_41_" style="fill:#19173E;" d="M235.878,112.858c-0.252-2.506-2.355-4.487-4.922-4.487H184.7
		c-1.175,0-2.246,0.432-3.099,1.12c-6.726-6.716-17.139-11.063-28.896-11.063c-11.749,0-22.156,4.344-28.888,11.053
		c-0.85-0.682-1.916-1.109-3.085-1.109H74.474c-2.562,0-4.669,1.981-4.916,4.487h-7.521v5.34h7.476v6.572
		c0,2.731,2.232,4.963,4.962,4.963h46.258c2.732,0,4.967-2.232,4.967-4.963v-10.461c5.684-6.708,15.648-11.175,27.006-11.175
		c11.375,0,21.348,4.479,27.03,11.199v10.438c0,2.731,2.232,4.963,4.964,4.963h46.255c2.729,0,4.967-2.232,4.967-4.963v-6.572h7.476
		v-5.34H235.878z M120.732,124.77H74.474v-11.435h46.258V124.77z M230.956,124.77H184.7v-11.435h46.255V124.77z"/>
	<path id="XMLID_3_" style="fill:#19173E;" d="M100.628,139.043c0,0,2.767,9.882,17.397,7.906
		c14.625-1.977,16.995-6.325,19.762,0.791c2.769,7.114-16.416,8.446-26.485,5.929C97.072,150.112,100.628,139.043,100.628,139.043z"
		/>
	<path id="XMLID_2_" style="fill:#5C2938;" d="M96.671,16.64c0,0,0.829-12.044-10.795-4.569
		c-11.63,7.475-96.348,44.435-70.599,99.669C41.023,166.973,96.671,16.64,96.671,16.64z"/>
	<path id="XMLID_1_" style="fill:#5C2938;" d="M208.757,16.64c0,0-0.829-12.044,10.798-4.569
		c11.629,7.475,96.348,44.435,70.601,99.669C264.407,166.973,208.757,16.64,208.757,16.64z"/>
</g>
</svg>
