<?xml version="1.0" encoding="iso-8859-1"?>
<!-- Generator: Adobe Illustrator 19.0.0, SVG Export Plug-In . SVG Version: 6.00 Build 0)  -->
<svg version="1.1" id="Layer_1" xmlns="http://www.w3.org/2000/svg" xmlns:xlink="http://www.w3.org/1999/xlink" x="0px" y="0px"
	 viewBox="0 0 300 300" style="enable-background:new 0 0 300 300;" xml:space="preserve">
<g id="XMLID_35_">
	<path id="XMLID_33_" style="fill:#3F1722;" d="M221.704,236.022c0,39.188-32.469,64.553-72.523,64.553
		c-40.052,0-72.519-25.364-72.519-64.553c0-39.186,32.467-77.361,72.519-77.361C189.235,158.662,221.704,196.836,221.704,236.022z"
		/>
	<path id="XMLID_32_" style="fill:#5C2938;" d="M148.238,300.559c0.313,0.002,0.624,0.017,0.943,0.017
		c0.758,0,1.505-0.026,2.256-0.043l-2.452-57.537L148.238,300.559z"/>
	<path id="XMLID_31_" style="fill:#E8DFCE;" d="M111.434,186.186l38.205,93.833l35.741-95.567
		C185.381,184.452,145.326,158.456,111.434,186.186z"/>
	<path id="XMLID_30_" style="fill:#FFFFFF;" d="M199.122,252.892L199.122,252.892l-6.796-9.865c-2.5-3.629-5.586-3.148-6.858,1.072
		l-1.83,6.05l0,0l-0.536,1.773l-1.105,3.643l0,0l-2.313,7.667l7.916-1.234l8.155-1.273l7.913-1.239L199.122,252.892z"/>
	
		<rect id="XMLID_29_" x="178.112" y="260.049" transform="matrix(0.988 -0.1543 0.1543 0.988 -38.3007 32.7746)" style="fill:#5C2938;" width="27.868" height="6.287"/>
	<g id="XMLID_68_">
		<g id="XMLID_71_">
			<path id="XMLID_28_" style="fill:#5C2938;" d="M149.766,270.391c0,0-16.274-28.476-25.314-60.115
				c-7.985-27.957-9.04-46.104-9.04-46.104l-31.189,23.958c0,0,4.878,11.736,15.731,29.713l21.336,10.514l-7.76,10.241
				c15.669,21.735,36.237,42.645,36.237,42.645V270.391z"/>
		</g>
		<g id="XMLID_69_">
			<path id="XMLID_27_" style="fill:#5C2938;" d="M148.735,270.391c0,0,16.272-28.476,25.312-60.115
				c7.99-27.957,9.04-46.104,9.04-46.104l31.192,23.958c0,0-4.88,11.736-15.731,29.713l-21.333,10.514l7.758,10.241
				c-15.669,21.735-36.237,42.645-36.237,42.645V270.391z"/>
		</g>
	</g>
	<path id="XMLID_26_" style="fill:#E37C2F;" d="M95.646,50.28c0,0-24.582-28.548-64.632-34.496c0,0-7.928-1.983-6.739,11.499
		c1.187,13.482,6.344,42.031,26.565,63.047C50.84,90.329,94.851,65.745,95.646,50.28z"/>
	<path id="XMLID_25_" style="fill:#FFAE5E;" d="M52.823,83.589c0,0-13.482-18.637-17.448-42.825c0,0-1.983-7.534,4.758-4.362
		c6.743,3.172,26.965,12.687,39.655,24.187L52.823,83.589z"/>
	<path id="XMLID_24_" style="opacity:0.49;fill:#442282;" d="M252.632,99.497c0-39.189-46.317-64.552-103.452-64.552
		c-57.132,0-103.45,25.363-103.45,64.552c0,39.19,46.317,108.206,103.45,108.206C206.315,207.704,252.632,138.687,252.632,99.497z"
		/>
	<path id="XMLID_23_" style="fill:#E37C2F;" d="M203.038,50.28c0,0,24.582-28.548,64.634-34.496c0,0,7.93-1.983,6.739,11.499
		c-1.189,13.482-6.346,42.031-26.567,63.047C247.843,90.329,203.832,65.745,203.038,50.28z"/>
	<path id="XMLID_22_" style="fill:#FFAE5E;" d="M245.862,83.589c0,0,13.482-18.637,17.446-42.825c0,0,1.988-7.534-4.756-4.362
		c-6.741,3.172-26.967,12.687-39.655,24.187L245.862,83.589z"/>
	<path id="XMLID_21_" style="fill:#D16A01;" d="M46.051,99.497c0-39.189,46.317-64.552,103.454-64.552
		c57.13,0,103.447,25.363,103.447,64.552c0,39.19-46.317,108.206-103.447,108.206C92.368,207.704,46.051,138.687,46.051,99.497z"/>
	<path id="XMLID_20_" style="fill:#E37C2F;" d="M149.505,34.946c-21.843,0-42.093,3.717-58.788,10.486
		c2.39,2.548,49.867,54.315,42.308,140.613h13.87h4.895h13.867c-7.708-88.049,41.87-140.154,42.401-140.71
		C191.407,38.627,171.243,34.946,149.505,34.946z"/>
	<g id="XMLID_57_">
		<path id="XMLID_19_" style="fill:#5C2938;" d="M214.108,53.713c-1.258,9.601-25.881,14.242-52.637,9.568
			c-26.763-4.673-46.506-12.854-44.844-27.482c1.103-9.625,24.204-13.945,50.965-9.267
			C194.352,31.204,215.891,40.134,214.108,53.713z"/>
		<path id="XMLID_18_" style="fill:#5C2938;" d="M129.088,33.838c-2.543,7.929,15.922,13.717,35.419,17.121
			c18.64,3.256,37.605,1.249,38.399-5.852c0,0-2.548-26.002-12.664-39.146c0,0-1.789-3.269-8.002-1.545
			c-6.208,1.721-11.916,3.088-18.365-1.435c-6.447-4.524-9.05-2.32-14.398,2.951C144.121,11.2,130.387,29.78,129.088,33.838z"/>
		<path id="XMLID_17_" style="fill:#FFFFFF;" d="M166.069,37.786c-20.712-3.033-28.362-9.439-31.175-13.45
			c-2.978,4.254-5.308,7.947-5.806,9.502c-2.543,7.929,15.922,13.717,35.419,17.121c18.64,3.256,37.605,1.249,38.399-5.852
			c0,0-0.467-4.677-1.761-11.042C196.533,37.64,186.9,40.839,166.069,37.786z"/>
	</g>
	<path id="XMLID_16_" style="fill:#FFAE5E;" d="M142.448,207.312c0,0,6.344-8.327-10.705-25.376
		c-17.051-17.052-42.428-28.95-70.186-34.103c0,0-15.071-1.584-5.552,12.294c9.131,13.312,29.773,32.433,57.893,44.808
		C133.724,213.66,142.448,207.312,142.448,207.312z"/>
	<g id="XMLID_49_">
		<path id="XMLID_15_" style="opacity:0.49;fill:#442282;" d="M80.015,125.112c0,0,20.601-16.063,31.723,8.143
			C111.738,133.254,93.076,155.394,80.015,125.112z"/>
		<g id="XMLID_52_">
			<defs>
				<path id="XMLID_13_" d="M80.015,125.112c0,0,20.601-16.063,31.723,8.143C111.738,133.254,93.076,155.394,80.015,125.112z"/>
			</defs>
			<use xlink:href="#XMLID_13_"  style="overflow:visible;fill:#FFFFFF;"/>
			<clipPath id="XMLID_37_">
				<use xlink:href="#XMLID_13_"  style="overflow:visible;"/>
			</clipPath>
			<path id="XMLID_14_" style="clip-path:url(#XMLID_37_);fill:#19173E;" d="M85.17,129.447c-1.631-6.827,2.576-13.688,9.399-15.323
				c6.83-1.635,13.688,2.577,15.322,9.403c1.639,6.827-2.576,13.686-9.401,15.324C93.665,140.48,86.804,136.281,85.17,129.447z"/>
		</g>
		<path id="XMLID_12_" style="fill:#FFFFFF;" d="M95.598,125.494c-0.419-1.768-2.201-2.859-3.969-2.433
			c-1.773,0.421-2.863,2.203-2.44,3.973c0.428,1.769,2.201,2.856,3.973,2.438C94.933,129.044,96.026,127.269,95.598,125.494z"/>
		<path id="XMLID_11_" style="fill:#FFFFFF;" d="M103.774,130.317c-0.304-1.263-1.574-2.044-2.84-1.741
			c-1.265,0.305-2.045,1.573-1.739,2.84c0.299,1.265,1.572,2.046,2.835,1.739C103.301,132.851,104.078,131.584,103.774,130.317z"/>
	</g>
	<path id="XMLID_10_" style="fill:#FFAE5E;" d="M156.237,207.312c0,0-6.344-8.327,10.705-25.376
		c17.052-17.052,42.428-28.95,70.187-34.103c0,0,15.068-1.584,5.552,12.294c-9.129,13.312-29.775,32.433-57.893,44.808
		C164.959,213.66,156.237,207.312,156.237,207.312z"/>
	<g id="XMLID_41_">
		<path id="XMLID_9_" style="opacity:0.49;fill:#442282;" d="M218.668,125.112c0,0-20.601-16.063-31.72,8.143
			C186.948,133.254,205.607,155.394,218.668,125.112z"/>
		<g id="XMLID_44_">
			<defs>
				<path id="XMLID_7_" d="M218.668,125.112c0,0-20.601-16.063-31.72,8.143C186.948,133.254,205.607,155.394,218.668,125.112z"/>
			</defs>
			<use xlink:href="#XMLID_7_"  style="overflow:visible;fill:#FFFFFF;"/>
			<clipPath id="XMLID_38_">
				<use xlink:href="#XMLID_7_"  style="overflow:visible;"/>
			</clipPath>
			<path id="XMLID_8_" style="clip-path:url(#XMLID_38_);fill:#19173E;" d="M213.513,129.447c1.634-6.827-2.576-13.688-9.399-15.323
				c-6.827-1.635-13.688,2.577-15.322,9.403c-1.636,6.827,2.576,13.686,9.403,15.324
				C205.021,140.48,211.879,136.281,213.513,129.447z"/>
		</g>
		<path id="XMLID_6_" style="fill:#FFFFFF;" d="M203.085,125.494c0.419-1.768,2.201-2.859,3.969-2.433
			c1.773,0.421,2.864,2.203,2.44,3.973c-0.428,1.769-2.201,2.856-3.973,2.438C203.753,129.044,202.657,127.269,203.085,125.494z"/>
		<path id="XMLID_5_" style="fill:#FFFFFF;" d="M194.911,130.317c0.302-1.263,1.572-2.044,2.837-1.741
			c1.265,0.305,2.045,1.573,1.741,2.84c-0.301,1.265-1.574,2.046-2.837,1.739C195.383,132.851,194.607,131.584,194.911,130.317z"/>
	</g>
	<path id="XMLID_4_" style="fill:#3F1722;" d="M131.059,195.757c0-6.988,8.258-11.506,18.444-11.506
		c10.188,0,18.441,4.519,18.441,11.506c0,6.985-8.253,19.29-18.441,19.29C139.317,215.048,131.059,202.742,131.059,195.757z"/>
	<g id="XMLID_36_">
		<path id="XMLID_3_" style="fill:#4A5F71;" d="M154.888,224.21c0-3.244-2.631-5.873-5.87-5.873c-3.244,0-5.87,2.629-5.87,5.873
			c0,3.239,2.626,5.87,5.87,5.87C152.256,230.08,154.888,227.449,154.888,224.21z"/>
		<path id="XMLID_2_" style="fill:#4A5F71;" d="M152.108,221.877c0,0,16.336-6.662,23.245-9.15c6.911-2.488,9.169,1.356,9.301,5.536
			c0.134,4.179-1.466,16.269-5.05,21.577c-3.591,5.308-10.112,0.847-12.49-0.452c-5.181-2.825-15.673-13.217-15.673-13.217
			L152.108,221.877z"/>
		<path id="XMLID_1_" style="fill:#4A5F71;" d="M145.613,221.877c0,0-16.336-6.662-23.245-9.15
			c-6.911-2.488-9.169,1.356-9.301,5.536c-0.134,4.179,1.466,16.269,5.047,21.577c3.593,5.308,10.114,0.847,12.49-0.452
			c5.184-2.825,15.676-13.217,15.676-13.217L145.613,221.877z"/>
	</g>
</g>
</svg>
