<?xml version="1.0" encoding="iso-8859-1"?>
<!-- Generator: Adobe Illustrator 19.0.0, SVG Export Plug-In . SVG Version: 6.00 Build 0)  -->
<svg version="1.1" id="Layer_1" xmlns="http://www.w3.org/2000/svg" xmlns:xlink="http://www.w3.org/1999/xlink" x="0px" y="0px"
	 viewBox="0 0 300 300" style="enable-background:new 0 0 300 300;" xml:space="preserve">
<g id="XMLID_28_">
	<g id="XMLID_65_">
		<path id="XMLID_31_" style="fill:#C2CBD4;" d="M92.2,53.74c0,0,1.178-25.337-19.152-30.641
			c-20.33-5.305-39.48,8.838-48.614,33.587c-9.134,24.749-3.535,50.971,10.901,56.569c14.438,5.599,25.339,5.599,25.339,5.599
			L92.2,53.74z"/>
		<path id="XMLID_30_" style="fill:#606D7E;" d="M83.654,59.043c0,0-0.885-16.499-12.375-22.097
			c-11.49-5.598-28.285,1.473-34.471,21.213c-6.187,19.741-16.204,54.507,20.623,52.149L83.654,59.043z"/>
		<path id="XMLID_29_" style="fill:#C2CBD4;" d="M216.731,53.74c0,0-1.178-25.337,19.15-30.641
			c20.33-5.305,39.48,8.838,48.614,33.587c9.133,24.749,3.535,50.971-10.902,56.569c-14.436,5.599-25.336,5.599-25.336,5.599
			L216.731,53.74z"/>
		<path id="XMLID_27_" style="fill:#606D7E;" d="M225.276,59.043c0,0,0.882-16.499,12.373-22.097
			c11.49-5.598,28.285,1.473,34.471,21.213c6.188,19.741,16.205,54.507-20.624,52.149L225.276,59.043z"/>
	</g>
	<g id="XMLID_59_">
		<path id="XMLID_26_" style="fill:#5C2938;" d="M234.533,226.718c0,43.266-35.847,71.268-80.068,71.268
			c-44.22,0-80.067-28.002-80.067-71.268c0-43.265,35.847-85.41,80.067-85.41C198.685,141.309,234.533,183.454,234.533,226.718z"/>
		
			<rect id="XMLID_25_" x="194.336" y="229.557" transform="matrix(0.9903 -0.1386 0.1386 0.9903 -30.2048 30.8437)" style="fill:#3F1722;" width="23.977" height="5.41"/>
		<path id="XMLID_24_" style="fill:#D16A01;" d="M172.304,186.001c-4.524,1.462-10.605,2.826-15.276,2.442l-5.94,1.697
			c-2.521,0.925-4.25,4.685-5.516,6.884c-2.257,3.913-4.86,7.691-6.801,11.774c-4.33,9.106-7.701,18.631-7.626,28.769
			c0.096,12.848,3.692,27.675,12.389,37.369c6.432-2.488,13.98-6.982,21.407-5.845c-8.722-11.655-2.227-34.101,2.789-46.28
			c3.774-9.165,8.832-17.729,14.332-25.871c1.842-2.726,4.441-5.207,5.845-8.167c1.254-2.645,1.47-5.654,2.175-8.305
			C184.523,180.611,177.804,184.226,172.304,186.001z"/>
		<path id="XMLID_23_" style="fill:#E37C2F;" d="M225.683,157.043c-2.772-8.911-12.993-10.743-21.155-10.605
			c-15.623,0.262-31.045,4.17-46.248,7.74c-12.084,2.838-24.179,3.531-36.35,1.686c-10.696-1.62-19.446-7.946-29.819-10.276
			l-5.94,3.394c-9.611,10.988-8.87,26.009,1.358,36.893c10.254,10.912,25.699,14.748,39.801,15.627
			c14.109,0.878,28.948-0.276,42.335-2.547c12.216-2.072,27.282-4.746,38.281-10.937
			C219.104,181.736,230.011,170.963,225.683,157.043z"/>
		<path id="XMLID_22_" style="fill:#FFAE5E;" d="M194.284,196.078c-2.079-6.217-6.126-11.53-10.514-16.123
			c-4.698-4.916-10.455-10.232-16.557-13.258c-6.335-3.144-11.071-4.555-17.822-2.879c-5.228,1.299-12.162,3.024-16.549,5.954
			l-1.272,1.273c11.182,7.992,19.782,16.986,23.749,30.549c1.863,6.369,2.992,13.122,2.558,19.941
			c-0.375,5.894-3.432,10.209-7.042,14.859c11.296,4.89,25.138,8.187,35.792-0.96C196.895,226.617,198.321,208.15,194.284,196.078z"
			/>
	</g>
	<path id="XMLID_21_" style="fill:#C2CBD4;" d="M236.963,67.491c-8.808-17.615-49.107-32.999-81.714-35.781v-0.05
		c-0.254,0.003-0.525,0.019-0.784,0.025c-0.259-0.006-0.531-0.022-0.785-0.025v0.05c-29.464,1.211-72.906,18.167-81.714,35.781
		c-14.065,28.126-20.818,41.26-20.818,60.495c0,27.107,27.4,35.737,57.354,45.571c15.369,5.046,30.384,11.794,45.178,12.351v0.054
		c0.262-0.002,0.523-0.022,0.785-0.028c0.261,0.005,0.524,0.025,0.784,0.028v-0.054c14.795-0.557,29.81-7.305,45.18-12.351
		c29.952-9.834,57.354-18.464,57.354-45.571C257.782,108.751,251.026,95.617,236.963,67.491z"/>
	<path id="XMLID_20_" style="fill:#606D7E;" d="M155.249,31.709v-0.05c-0.254,0.003-0.525,0.019-0.784,0.025
		c-0.259-0.006-0.531-0.022-0.785-0.025v0.05c-18.885,0.776-43.501,8.025-61.07,17.765c14.14,0.74,56.615,7.636,55.962,63.978h1.964
		h7.859h1.962c-0.656-56.433,41.964-63.26,56.034-63.981C199.531,40.264,175.857,33.467,155.249,31.709z"/>
	<path id="XMLID_19_" style="opacity:0.49;fill:#442282;" d="M100.264,87.403c0,0,22.863-13.094,30.505,12.657
		C130.769,100.06,108.974,119.497,100.264,87.403z"/>
	<g id="XMLID_53_">
		<defs>
			<path id="XMLID_17_" d="M100.264,87.403c0,0,22.863-13.094,30.505,12.657C130.769,100.06,108.974,119.497,100.264,87.403z"/>
		</defs>
		<use xlink:href="#XMLID_17_"  style="overflow:visible;fill:#FFFFFF;"/>
		<clipPath id="XMLID_33_">
			<use xlink:href="#XMLID_17_"  style="overflow:visible;"/>
		</clipPath>
		<path id="XMLID_18_" style="clip-path:url(#XMLID_33_);fill:#19173E;" d="M104.788,92.464
			c-0.656-7.048,4.525-13.295,11.575-13.951c7.05-0.655,13.297,4.527,13.954,11.574c0.656,7.053-4.528,13.298-11.577,13.953
			C111.691,104.697,105.446,99.516,104.788,92.464z"/>
	</g>
	<path id="XMLID_16_" style="fill:#FFFFFF;" d="M115.768,90.012c-0.172-1.826-1.793-3.171-3.618-3.002
		c-1.829,0.172-3.172,1.791-3.002,3.618c0.169,1.829,1.789,3.173,3.618,3.002C114.591,93.462,115.937,91.843,115.768,90.012z"/>
	<circle id="XMLID_15_" style="fill:#FFFFFF;" cx="120.873" cy="96.213" r="2.373"/>
	<path id="XMLID_14_" style="fill:#3F1722;" d="M114.512,156.928c0,0-3.216-1.974-7.021-1.17c-3.804,0.804-9.511,3.877-7.975,14.192
		c1.537,10.313,13.389,15.215,23.702,15.508c10.315,0.292,20.701-3.659,28.091-13.608c0,0,4.974-7.021,0.585-13.093
		c-4.388-6.072-11.411-5.048-15.8-2.34c-4.391,2.706-5.998,12.653-13.314,14.921c-7.315,2.27-13.499-1.145-14.996-6.216
		C106.466,160.659,109.392,156.562,114.512,156.928z"/>
	<path id="XMLID_13_" style="opacity:0.49;fill:#442282;" d="M208.665,87.403c0,0-22.861-13.094-30.505,12.657
		C178.16,100.06,199.955,119.497,208.665,87.403z"/>
	<g id="XMLID_46_">
		<defs>
			<path id="XMLID_11_" d="M208.665,87.403c0,0-22.861-13.094-30.505,12.657C178.16,100.06,199.955,119.497,208.665,87.403z"/>
		</defs>
		<use xlink:href="#XMLID_11_"  style="overflow:visible;fill:#FFFFFF;"/>
		<clipPath id="XMLID_35_">
			<use xlink:href="#XMLID_11_"  style="overflow:visible;"/>
		</clipPath>
		<path id="XMLID_12_" style="clip-path:url(#XMLID_35_);fill:#19173E;" d="M204.141,92.464c0.656-7.048-4.527-13.295-11.575-13.951
			c-7.049-0.655-13.298,4.527-13.953,11.574c-0.656,7.053,4.528,13.298,11.577,13.953
			C197.238,104.697,203.484,99.516,204.141,92.464z"/>
	</g>
	<circle id="XMLID_10_" style="fill:#FFFFFF;" cx="196.473" cy="90.321" r="3.324"/>
	<circle id="XMLID_9_" style="fill:#FFFFFF;" cx="188.057" cy="96.213" r="2.373"/>
	<path id="XMLID_8_" style="fill:#3F1722;" d="M194.416,156.928c0,0,3.218-1.974,7.023-1.17c3.804,0.804,9.512,3.877,7.975,14.192
		c-1.536,10.313-13.388,15.215-23.702,15.508c-10.313,0.292-20.701-3.659-28.089-13.608c0,0-4.974-7.021-0.586-13.093
		c4.39-6.072,11.412-5.048,15.8-2.34c4.39,2.706,5.999,12.653,13.314,14.921c7.316,2.27,13.5-1.145,14.996-6.216
		C202.464,160.659,199.537,156.562,194.416,156.928z"/>
	<path id="XMLID_39_" style="fill:#E37C2F;" d="M217.433,112.381h-3.371c-0.176,0-0.342,0.024-0.511,0.051
		c-1.824-10.836-11.226-19.099-22.579-19.099c-5.795,0-11.07,2.166-15.107,5.71h-42.801c-4.036-3.544-9.313-5.71-15.106-5.71
		c-11.354,0-20.755,8.263-22.579,19.099c-0.169-0.028-0.337-0.051-0.514-0.051h-3.369c-1.77,0-3.202,1.434-3.202,3.201
		c0,1.77,1.433,3.202,3.202,3.202h3.369c0.106,0,0.206-0.02,0.31-0.031c1.245,11.485,10.967,20.426,22.782,20.426
		c12.66,0,22.923-10.263,22.923-22.923c0-4.503-1.317-8.689-3.559-12.232h34.285c-2.244,3.543-3.56,7.729-3.56,12.232
		c0,12.66,10.263,22.923,22.925,22.923c11.815,0,21.537-8.942,22.781-20.426c0.103,0.011,0.203,0.031,0.309,0.031h3.371
		c1.77,0,3.202-1.433,3.202-3.202C220.635,113.815,219.203,112.381,217.433,112.381z M117.958,134.965
		c-10.332,0-18.708-8.376-18.708-18.708s8.376-18.71,18.708-18.71c10.332,0,18.708,8.378,18.708,18.71
		S128.29,134.965,117.958,134.965z M190.972,134.965c-10.335,0-18.711-8.376-18.711-18.708s8.376-18.71,18.711-18.71
		c10.332,0,18.708,8.378,18.708,18.71S201.304,134.965,190.972,134.965z"/>
	<path id="XMLID_4_" style="fill:#19173E;" d="M132.962,135.638c0-16.272,10.138-26.803,22.647-26.803
		c12.508,0,22.646,10.531,22.646,26.803s-10.138,32.122-22.646,32.122C143.1,167.761,132.962,151.91,132.962,135.638z"/>
	<g id="XMLID_34_">
		<path id="XMLID_3_" style="fill:#5C2938;" d="M198.967,40.168c0.363,8.544-20.351,16.323-44.344,16.323
			c-23.994,0-42.417-4.113-43.188-17.096c-0.507-8.539,18.937-15.808,42.931-15.808C178.358,23.588,198.452,28.086,198.967,40.168z"
			/>
		<path id="XMLID_2_" style="fill:#5C2938;" d="M121.975,35.797c-1.006,7.286,15.937,9.513,33.419,9.513
			c16.711,0,32.905-4.628,32.52-10.927c0,0-6.169-22.237-16.968-32.134c0,0-2.055-2.57-7.197-0.128
			c-5.142,2.442-9.898,4.498-16.197,1.542c-6.296-2.955-8.226-0.643-12.08,4.755C131.615,13.817,122.489,32.07,121.975,35.797z"/>
		<path id="XMLID_1_" style="fill:#3F1722;" d="M154.751,33.613c-18.481,0.508-26.111-3.902-29.168-6.965
			c-1.945,4.154-3.411,7.72-3.608,9.149c-1.006,7.286,15.937,9.513,33.419,9.513c16.711,0,32.905-4.628,32.52-10.927
			c0,0-1.117-3.997-3.209-9.339C181.231,28.857,173.339,33.102,154.751,33.613z"/>
	</g>
</g>
</svg>
