<?xml version="1.0" encoding="iso-8859-1"?>
<!-- Generator: Adobe Illustrator 19.0.0, SVG Export Plug-In . SVG Version: 6.00 Build 0)  -->
<svg version="1.1" id="Layer_1" xmlns="http://www.w3.org/2000/svg" xmlns:xlink="http://www.w3.org/1999/xlink" x="0px" y="0px"
	 viewBox="0 0 300 300" style="enable-background:new 0 0 300 300;" xml:space="preserve">
<g id="XMLID_61_">
	<g id="XMLID_98_">
		<path id="XMLID_59_" style="fill:#19173E;" d="M208.431,85.252c-2.516-31.315-26.031-62.028-58.144-62.028
			c-0.067,0-0.134,0.005-0.201,0.005c-0.067,0-0.135-0.005-0.203-0.005c-32.112,0-55.627,30.712-58.144,62.028
			c-7.838,97.438-11.66,92.144-15.775,145.066c-0.159,2.006,148.401,2.006,148.243,0C220.093,177.397,216.271,182.69,208.431,85.252
			z"/>
		<path id="XMLID_58_" style="fill:#E8DFCE;" d="M202.544,100.411c-2.264-28.157-23.405-55.77-52.277-55.77
			c-0.06,0-0.121,0.007-0.18,0.007c-0.061,0-0.121-0.007-0.182-0.007c-28.871,0-50.012,27.613-52.276,55.77
			c-7.047,87.6-10.483,82.843-14.185,130.422c-0.14,1.801,133.424,1.801,133.283,0C213.027,183.254,209.591,188.011,202.544,100.411
			z"/>
	</g>
	<path id="XMLID_57_" style="fill:#19173E;" d="M88.835,185.429c-10.669,13.965-12.739,31.359-12.739,48.958
		c0,39.984,33.127,65.857,73.99,65.857c40.864,0,73.99-25.873,73.99-65.857c0-17.562-2.039-34.917-12.669-48.868
		c-17.245,3.588-42.19,8.957-60.914,8.957C131.619,194.476,106.34,189.058,88.835,185.429z"/>
	<g id="XMLID_93_">
		<path id="XMLID_56_" style="fill:#4A5F71;" d="M110.102,34.501c0,0-5.963-11.039,33.215-12.523
			c35.94-1.362,36.874,3.551,37.301,7.622c0.545,5.174-5.174,10.89-36.211,12.254C110.861,43.326,110.102,34.501,110.102,34.501z"/>
		<path id="XMLID_55_" style="fill:#4A5F71;" d="M118.541,30.688c0,0,21.237,10.619,51.186-2.721c0,0,0.543-27.227-26.954-26.956
			C115.275,1.287,118.541,30.688,118.541,30.688z"/>
		<path id="XMLID_54_" style="fill:#FFFFFF;" d="M169.727,27.967c0,0,0.074-3.966-1.357-8.852
			c-4.149,2.821-11.662,6.209-24.236,6.675c-14.645,0.542-22.06-1.435-25.406-2.826c-0.55,4.413-0.187,7.725-0.187,7.725
			S139.778,41.307,169.727,27.967z"/>
	</g>
	<path id="XMLID_53_" style="fill:#19173E;" d="M179.525,53.208c-8.289-6.267-18.192-10.092-29.175-10.092
		c-0.063,0-0.126,0.005-0.188,0.005c-0.063,0-0.126-0.005-0.19-0.005c-11.048,0-21.007,3.868-29.325,10.207
		c9.014,1.955,29.189,11.378,26.197,56.734l2.951-0.227l2.951,0.227C149.687,63.678,170.839,54.875,179.525,53.208z"/>
	<path id="XMLID_52_" style="fill:#D31E25;" d="M137.503,108.245l12.582,23.937l12.582-23.937c0,0-6.106-4.505-12.582-4.505
		C143.888,103.74,137.503,108.245,137.503,108.245z"/>
	<g id="XMLID_76_">
		<g id="XMLID_84_">
			<path id="XMLID_51_" style="opacity:0.49;fill:#442282;" d="M114.4,87.205c0,0,15.223-4.525,16.147,11.644
				C130.546,98.849,115.074,107.24,114.4,87.205z"/>
			<g id="XMLID_87_">
				<defs>
					<path id="XMLID_49_" d="M114.4,87.205c0,0,15.223-4.525,16.147,11.644C130.546,98.849,115.074,107.24,114.4,87.205z"/>
				</defs>
				<use xlink:href="#XMLID_49_"  style="overflow:visible;fill:#FFFFFF;"/>
				<clipPath id="XMLID_2_">
					<use xlink:href="#XMLID_49_"  style="overflow:visible;"/>
				</clipPath>
				<path id="XMLID_50_" style="clip-path:url(#XMLID_2_);fill:#19173E;" d="M116.354,90.802c0.592-4.225,4.495-7.178,8.719-6.587
					c4.228,0.591,7.176,4.493,6.587,8.72c-0.589,4.23-4.493,7.175-8.719,6.587C118.713,98.932,115.765,95.032,116.354,90.802z"/>
			</g>
			<path id="XMLID_48_" style="fill:#FFFFFF;" d="M123.134,90.878c0.154-1.096-0.61-2.106-1.708-2.258
				c-1.095-0.154-2.106,0.61-2.26,1.708c-0.152,1.093,0.611,2.104,1.707,2.262C121.969,92.74,122.983,91.976,123.134,90.878z"/>
			<path id="XMLID_47_" style="fill:#FFFFFF;" d="M126.691,95.42c0.11-0.781-0.438-1.501-1.219-1.616
				c-0.784-0.107-1.507,0.437-1.616,1.22c-0.11,0.783,0.435,1.508,1.219,1.616C125.861,96.75,126.581,96.206,126.691,95.42z"/>
		</g>
		<g id="XMLID_77_">
			<path id="XMLID_46_" style="opacity:0.49;fill:#442282;" d="M185.772,87.205c0,0-15.226-4.525-16.15,11.644
				C169.622,98.849,185.096,107.24,185.772,87.205z"/>
			<g id="XMLID_80_">
				<defs>
					<path id="XMLID_44_" d="M185.772,87.205c0,0-15.226-4.525-16.15,11.644C169.622,98.849,185.096,107.24,185.772,87.205z"/>
				</defs>
				<use xlink:href="#XMLID_44_"  style="overflow:visible;fill:#FFFFFF;"/>
				<clipPath id="XMLID_3_">
					<use xlink:href="#XMLID_44_"  style="overflow:visible;"/>
				</clipPath>
				<circle id="XMLID_45_" style="clip-path:url(#XMLID_3_);fill:#19173E;" cx="176.164" cy="91.869" r="7.727"/>
			</g>
			<path id="XMLID_43_" style="fill:#FFFFFF;" d="M177.037,90.878c-0.154-1.096,0.61-2.106,1.706-2.258
				c1.096-0.154,2.109,0.61,2.261,1.708c0.154,1.093-0.61,2.104-1.706,2.262C178.202,92.74,177.187,91.976,177.037,90.878z"/>
			<path id="XMLID_42_" style="fill:#FFFFFF;" d="M173.48,95.42c-0.11-0.781,0.436-1.501,1.218-1.616
				c0.786-0.107,1.507,0.437,1.617,1.22c0.108,0.783-0.435,1.508-1.222,1.616C174.311,96.75,173.589,96.206,173.48,95.42z"/>
		</g>
	</g>
	<path id="XMLID_41_" style="fill:#FFFFFF;" d="M149.888,245.23l32.404-55.379c-10.586,1.472-21.476,2.448-31.799,2.448
		c-11.42,0-23.587-1.194-35.298-2.934L149.888,245.23z"/>
	<path id="XMLID_71_" style="fill:#4A5F71;" d="M180.378,107.218h-12.033c-1.871,0-3.506,0.988-4.439,2.463
		c-1.158-2.216-2.418-6.797-3.253-9.828c-2.354-8.571-4.79-17.433-10.553-17.477c-0.013,0-0.028,0-0.041,0
		c-5.7,0-8.153,8.647-10.525,17.008c-0.774,2.729-2.158,7.59-3.438,10.043c-0.955-1.333-2.508-2.209-4.27-2.209h-12.032
		c-2.904,0-5.267,2.362-5.267,5.264v6.68c0,2.904,2.363,5.264,5.267,5.264h12.032c2.903,0,5.267-2.36,5.267-5.264v-5.289
		c2.707-1.891,4.208-7.148,6.003-13.479c1.716-6.04,4.062-14.316,6.965-14.316c0.005,0,0.01,0,0.01,0
		c2.964,0.022,5.4,8.888,7.012,14.756c1.767,6.431,3.23,11.72,5.998,13.308v5.02c0,2.904,2.361,5.264,5.265,5.264h12.033
		c2.902,0,5.266-2.36,5.266-5.264v-6.68C185.644,109.58,183.28,107.218,180.378,107.218z M132.736,119.162
		c0,0.491-0.417,0.908-0.91,0.908h-12.032c-0.492,0-0.91-0.417-0.91-0.908v-6.68c0-0.488,0.419-0.908,0.91-0.908h12.032
		c0.493,0,0.91,0.42,0.91,0.908V119.162z M181.288,119.162c0,0.491-0.419,0.908-0.91,0.908h-12.033
		c-0.492,0-0.909-0.417-0.909-0.908v-6.68c0-0.488,0.417-0.908,0.909-0.908h12.033c0.492,0,0.91,0.42,0.91,0.908V119.162z"/>
	<path id="XMLID_37_" style="fill:#4A5F71;" d="M149.122,300.228c0.323,0.003,0.641,0.015,0.964,0.015
		c0.771,0,1.535-0.024,2.302-0.044l-2.503-58.696L149.122,300.228z"/>
	<path id="XMLID_36_" style="fill:#FFFFFF;" d="M203.727,237.593L203.727,237.593l-5.442-10.49
		c-2.004-3.858-4.565-3.583-5.695,0.615l-1.622,6.018l0,0l-0.474,1.765l-0.977,3.627l0,0l-2.055,7.632l6.569-0.713l6.769-0.732
		l6.567-0.71L203.727,237.593z"/>
	
		<rect id="XMLID_35_" x="186.196" y="244.365" transform="matrix(0.9942 -0.1077 0.1077 0.9942 -25.5042 22.7219)" style="fill:#4A5F71;" width="22.986" height="6.412"/>
	<path id="XMLID_34_" style="fill:#4A5F71;" d="M211.106,185.118c-9.427,2.006-22.107,3.915-32.819,5.262l-28.565,51.831v11.978
		l34.456-40.199l-6.869-6.631h12.553L211.106,185.118z"/>
	<path id="XMLID_33_" style="fill:#4A5F71;" d="M110.308,207.359h12.55l-6.866,6.631l34.456,40.199v-11.978l-28.616-51.923
		c-10.725-1.369-23.43-3.287-32.87-5.291L110.308,207.359z"/>
	<g id="XMLID_62_">
		<circle id="XMLID_32_" style="fill:#D31E25;" cx="149.918" cy="199.737" r="5.99"/>
		<path id="XMLID_31_" style="fill:#D31E25;" d="M147.205,197.361c0,0-14.176-6.799-20.171-9.338
			c-5.993-2.538-7.953,1.382-8.069,5.648c-0.115,4.266,1.269,16.601,4.381,22.014c3.112,5.418,8.77,0.861,10.835-0.459
			c4.494-2.885,13.599-13.487,13.599-13.487L147.205,197.361z"/>
		<path id="XMLID_30_" style="fill:#D31E25;" d="M152.967,197.361c0,0,14.176-6.799,20.171-9.338
			c5.993-2.538,7.953,1.382,8.069,5.648c0.113,4.266-1.27,16.601-4.381,22.014c-3.112,5.418-8.77,0.861-10.835-0.459
			c-4.495-2.885-13.6-13.487-13.6-13.487L152.967,197.361z"/>
	</g>
</g>
</svg>
