<?xml version="1.0" encoding="iso-8859-1"?>
<!-- Generator: Adobe Illustrator 19.0.0, SVG Export Plug-In . SVG Version: 6.00 Build 0)  -->
<svg version="1.1" id="Layer_1" xmlns="http://www.w3.org/2000/svg" xmlns:xlink="http://www.w3.org/1999/xlink" x="0px" y="0px"
	 viewBox="0 0 300 300" style="enable-background:new 0 0 300 300;" xml:space="preserve">
<g id="XMLID_38_">
	<path id="XMLID_36_" style="fill:#E37B62;" d="M116.436,48.845c0,0,3.992-20.308-28.284-36.625
		C55.879-4.096,27.961,0.98,27.961,0.98s9.79,11.242,18.854,29.734c9.064,18.493,18.491,32.273,43.875,30.46
		C116.073,59.359,116.436,48.845,116.436,48.845z"/>
	<path id="XMLID_35_" style="fill:#FFD1BA;" d="M86.34,57.546c0,0-23.209-5.438-31.55-28.282c0,0-1.086-3.628,6.167-3.265
		c7.252,0.363,29.736,0,42.063,24.659C103.02,50.658,101.205,59.724,86.34,57.546z"/>
	<path id="XMLID_34_" style="fill:#E37B62;" d="M185.025,48.845c0,0-3.989-20.308,28.281-36.625
		C245.582-4.096,273.5,0.98,273.5,0.98s-9.793,11.242-18.857,29.734c-9.061,18.493-18.488,32.273-43.872,30.46
		C185.385,59.359,185.025,48.845,185.025,48.845z"/>
	<path id="XMLID_33_" style="fill:#FFD1BA;" d="M215.121,57.546c0,0,23.206-5.438,31.547-28.282c0,0,1.086-3.628-6.167-3.265
		c-7.249,0.363-29.733,0-42.063,24.659C198.438,50.658,200.255,59.724,215.121,57.546z"/>
	<path id="XMLID_32_" style="fill:#4A5F71;" d="M236.319,223.147c0,46.445-38.485,76.506-85.957,76.506
		c-47.467,0-85.952-30.062-85.952-76.506c0-46.445,38.485-91.687,85.952-91.687C197.834,131.46,236.319,176.702,236.319,223.147z"/>
	<path id="XMLID_31_" style="fill:#606D7E;" d="M148.468,299.632c0.374,0.003,0.743,0.021,1.117,0.021
		c0.899,0,1.783-0.033,2.676-0.053l-2.906-68.189L148.468,299.632z"/>
	<path id="XMLID_30_" style="fill:#FFFFFF;" d="M106.544,164.077l44.507,97.984l43.135-100.037
		C194.185,162.024,146.713,131.213,106.544,164.077z"/>
	<rect id="XMLID_29_" x="185.623" y="253.326" style="fill:#606D7E;" width="33.027" height="7.451"/>
	<g id="XMLID_72_">
		<path id="XMLID_28_" style="fill:#606D7E;" d="M98.872,133.697l-22.12,27.195c0.743,16.82,4.313,31.282,9.467,43.703l32.959,0.899
			l-18.154,24.997c21.476,28.479,49.341,39.186,49.341,39.186v-9.428L98.872,133.697z"/>
		<path id="XMLID_27_" style="fill:#606D7E;" d="M201.855,133.697l22.123,27.195c-0.746,16.82-4.312,31.282-9.469,43.703
			l-32.959,0.899l18.154,24.997c-21.476,28.479-49.338,39.186-49.338,39.186v-9.428L201.855,133.697z"/>
	</g>
	<g id="XMLID_68_">
		<circle id="XMLID_26_" style="fill:#19173E;" cx="150.169" cy="197.85" r="6.958"/>
		<path id="XMLID_25_" style="fill:#19173E;" d="M151.595,193.165c0,0,39.526-20.306,43.515-9.427
			c3.986,10.879,18.542,51.431-44.941,14.112C150.169,197.85,148.692,199.33,151.595,193.165z"/>
		<path id="XMLID_24_" style="fill:#19173E;" d="M146.517,193.165c0,0-39.523-20.306-43.515-9.427
			c-3.986,10.879-18.539,51.431,44.944,14.112C147.946,197.85,149.421,199.33,146.517,193.165z"/>
	</g>
	<path id="XMLID_23_" style="fill:#EA9479;" d="M232.9,75.679c-7.235-12.003-14.366-24.151-24.661-31.547
		c-11.602-8.341-35.139-9.067-57.14-9.067c-0.125,0-0.247,0.006-0.369,0.01c-0.125-0.004-0.247-0.01-0.368-0.01
		c-22.001,0-45.539,0.726-57.143,9.067c-10.295,7.396-17.425,19.544-24.661,31.547c-10.796,17.924-19.376,37.167-19.376,52.988
		c0,28.188,23.852,42.203,52.377,51.806c15.56,5.241,29.078,12.372,48.802,12.372c0.122,0,0.244-0.003,0.368-0.004
		c0.122,0.001,0.244,0.004,0.369,0.004c19.724,0,33.24-7.131,48.805-12.372c28.519-9.603,52.372-23.618,52.372-51.806
		C252.276,112.845,243.699,93.603,232.9,75.679z"/>
	<path id="XMLID_22_" style="fill:#E37B62;" d="M196.198,100.735c8.647,11.559-26.101,26.14-45.326,26.14
		c-19.228,0-53.007-14.406-44.6-26.14c10.156-14.179,25.372-26.145,44.6-26.145C170.097,74.59,185.317,86.193,196.198,100.735z"/>
	<ellipse id="XMLID_21_" style="fill:#FFD1BA;" cx="151.235" cy="107.986" rx="48.59" ry="26.14"/>
	<path id="XMLID_20_" style="fill:#E37B62;" d="M135.642,105.774c0-2.403-1.945-4.352-4.352-4.352c-2.404,0-4.352,1.949-4.352,4.352
		c0,2.403,1.948,4.352,4.352,4.352C133.697,110.126,135.642,108.177,135.642,105.774z"/>
	<path id="XMLID_19_" style="fill:#5C2938;" d="M109.172,152.552c0,0-6.164-1.45-10.153,4.714
		c-3.992,6.165,1.026,16.244,13.416,17.042c11.242,0.726,29.013-10.516,34.085-37.711c0,0,0.363-7.254-5.801-9.428
		c-7.309-2.58-14.139,2.539-16.319,11.603c-1.256,5.242-2.537,14.868-6.164,20.307c-3.626,5.441-8.146,6.423-10.879,2.175
		C104.094,156.177,109.172,152.552,109.172,152.552z"/>
	<g id="XMLID_56_">
		<path id="XMLID_18_" style="opacity:0.49;fill:#442282;" d="M92.68,76.776c0,0,8.999-14.875,21.652-2.455
			C114.332,74.321,107.976,92.511,92.68,76.776z"/>
		<g id="XMLID_59_">
			<defs>
				<path id="XMLID_16_" d="M92.68,76.776c0,0,8.999-14.875,21.652-2.455C114.332,74.321,107.976,92.511,92.68,76.776z"/>
			</defs>
			<use xlink:href="#XMLID_16_"  style="overflow:visible;fill:#FFFFFF;"/>
			<clipPath id="XMLID_40_">
				<use xlink:href="#XMLID_16_"  style="overflow:visible;"/>
			</clipPath>
			<path id="XMLID_17_" style="clip-path:url(#XMLID_40_);fill:#19173E;" d="M96.91,78.25c-2.631-3.862-1.644-9.124,2.214-11.758
				c3.861-2.634,9.123-1.643,11.76,2.214c2.631,3.86,1.642,9.123-2.217,11.758C104.806,83.101,99.547,82.109,96.91,78.25z"/>
		</g>
		<path id="XMLID_15_" style="fill:#FFFFFF;" d="M102.458,73.321c-0.678-0.998-2.047-1.257-3.048-0.573
			c-1.001,0.681-1.253,2.049-0.573,3.048c0.683,1.001,2.047,1.259,3.054,0.573C102.887,75.687,103.145,74.323,102.458,73.321z"/>
		<path id="XMLID_14_" style="fill:#FFFFFF;" d="M108.684,74.383c-0.485-0.716-1.463-0.897-2.177-0.411
			c-0.712,0.488-0.896,1.464-0.408,2.179c0.488,0.714,1.46,0.897,2.177,0.407C108.991,76.073,109.178,75.097,108.684,74.383z"/>
	</g>
	<circle id="XMLID_13_" style="fill:#E37B62;" cx="170.17" cy="105.774" r="4.351"/>
	<path id="XMLID_12_" style="fill:#5C2938;" d="M192.286,152.552c0,0,6.164-1.45,10.153,4.714
		c3.992,6.165-1.026,16.244-13.413,17.042c-11.245,0.726-29.013-10.516-34.087-37.711c0,0-0.363-7.254,5.801-9.428
		c7.312-2.58,14.142,2.539,16.319,11.603c1.259,5.242,2.54,14.868,6.164,20.307c3.626,5.441,8.148,6.423,10.878,2.175
		C197.364,156.177,192.286,152.552,192.286,152.552z"/>
	<g id="XMLID_47_">
		<path id="XMLID_11_" style="opacity:0.49;fill:#442282;" d="M208.781,76.776c0,0-9.002-14.875-21.655-2.455
			C187.126,74.321,193.485,92.511,208.781,76.776z"/>
		<g id="XMLID_50_">
			<defs>
				<path id="XMLID_9_" d="M208.781,76.776c0,0-9.002-14.875-21.655-2.455C187.126,74.321,193.485,92.511,208.781,76.776z"/>
			</defs>
			<use xlink:href="#XMLID_9_"  style="overflow:visible;fill:#FFFFFF;"/>
			<clipPath id="XMLID_41_">
				<use xlink:href="#XMLID_9_"  style="overflow:visible;"/>
			</clipPath>
			<path id="XMLID_10_" style="clip-path:url(#XMLID_41_);fill:#19173E;" d="M204.548,78.25c2.631-3.862,1.644-9.124-2.214-11.758
				c-3.862-2.634-9.124-1.643-11.758,2.214c-2.634,3.86-1.644,9.123,2.214,11.758C196.652,83.101,201.911,82.109,204.548,78.25z"/>
		</g>
		<path id="XMLID_8_" style="fill:#FFFFFF;" d="M199,73.321c0.68-0.998,2.047-1.257,3.048-0.573
			c1.001,0.681,1.253,2.049,0.576,3.048c-0.683,1.001-2.05,1.259-3.054,0.573C198.574,75.687,198.316,74.323,199,73.321z"/>
		<path id="XMLID_7_" style="fill:#FFFFFF;" d="M192.773,74.383c0.485-0.716,1.463-0.897,2.177-0.411
			c0.714,0.488,0.899,1.464,0.411,2.179c-0.491,0.714-1.46,0.897-2.18,0.407C192.47,76.073,192.283,75.097,192.773,74.383z"/>
	</g>
	<path id="XMLID_43_" style="fill:#5C2938;" d="M200.896,74.831c-10.099,0-18.956,2.177-24.034,5.455
		c-11.953,0.55-13.782-17.56-26.637-17.56c-11.653,0-14.61,17.39-25.735,17.489c-5.092-3.239-13.898-5.384-23.926-5.384
		c-15.772,0-28.559,5.296-28.559,11.829c0,6.533,12.787,11.83,28.559,11.83c15.769,0,28.556-5.296,28.556-11.83
		c0-0.632-0.153-1.246-0.383-1.851c11.704-3.21,12.772-16.811,21.701-16.811c9.54,0,9.815,13.749,22.268,16.857
		c-0.218,0.591-0.369,1.189-0.369,1.806c0,6.533,12.787,11.83,28.559,11.83c15.772,0,28.556-5.296,28.556-11.83
		C229.452,80.127,216.669,74.831,200.896,74.831z M100.565,93.468c-15.767,0-23.39-5.224-23.535-6.81
		c0.147-1.583,7.777-6.806,23.535-6.806c15.758,0,23.387,5.223,23.535,6.808C123.955,88.244,116.331,93.468,100.565,93.468z
		 M200.896,93.468c-15.766,0-23.39-5.224-23.538-6.809c0.028-0.322,0.388-0.798,1.043-1.348c0.034-0.033,0.077-0.044,0.105-0.085
		c2.657-2.152,10.003-5.374,22.389-5.374c15.758,0,23.385,5.223,23.535,6.806C224.284,88.244,216.663,93.468,200.896,93.468z"/>
	<g id="XMLID_39_">
		<path id="XMLID_3_" style="fill:#19173E;" d="M107.738,41.428c0,0-6.927-12.826,38.587-14.549
			c41.751-1.582,42.834,4.128,43.33,8.854c0.632,6.011-6.008,12.652-42.066,14.233C108.619,51.676,107.738,41.428,107.738,41.428z"
			/>
		<path id="XMLID_2_" style="fill:#19173E;" d="M117.545,37c0,0,24.666,12.334,59.46-3.163c0,0,0.632-31.629-31.315-31.312
			C113.745,2.841,117.545,37,117.545,37z"/>
		<path id="XMLID_1_" style="fill:#4A5F71;" d="M177.004,33.837c0,0,0.088-4.607-1.574-10.283
			c-4.823,3.282-13.552,7.211-28.156,7.753c-17.017,0.629-25.627-1.664-29.514-3.28c-0.641,5.123-0.215,8.974-0.215,8.974
			S142.211,49.334,177.004,33.837z"/>
	</g>
</g>
</svg>
