<?xml version="1.0" encoding="iso-8859-1"?>
<!-- Generator: Adobe Illustrator 19.0.0, SVG Export Plug-In . SVG Version: 6.00 Build 0)  -->
<svg version="1.1" id="Layer_1" xmlns="http://www.w3.org/2000/svg" xmlns:xlink="http://www.w3.org/1999/xlink" x="0px" y="0px"
	 viewBox="0 0 300 300" style="enable-background:new 0 0 300 300;" xml:space="preserve">
<g id="XMLID_35_">
	<path id="XMLID_33_" style="fill:#C2CBD4;" d="M218.2,192.978c0,0,10.817,4.851,17.533-2.239c6.714-7.09,3.357-17.158,3.357-17.158
		s11.867-2.774,17.906-20.894c7.834-23.5-6.34-36.184-6.34-36.184s12.238-9.578,10.817-29.101
		c-1.492-20.516-20.891-29.096-20.891-29.096s9.439-14.78-2.985-30.59c-12.312-15.668-36.185-5.969-36.185-5.969
		S197.681,4.589,178.281,1.6c-24.068-3.702-30.962,10.448-30.962,10.448s-9.033-12.999-31.337-10.072
		C93.229,4.958,89.498,24.731,89.498,24.731s-9.328-6.714-18.655,0.745c-9.327,7.461-5.967,18.281-5.967,18.281
		s-14.923,1.49-20.893,17.158c-5.528,14.514,4.851,27.237,4.851,27.237s-15.295,14.547-5.97,42.524
		c6.685,20.052,26.114,24.995,26.114,24.995s-9.697,12.312,0.375,26.49c6.486,9.127,17.533,9.322,17.533,9.322
		s1.118,17.16,18.652,23.132c17.904,6.097,30.217-5.972,30.217-5.972s12.311,13.433,34.323,10.075
		c21.136-3.225,24.246-19.771,24.246-19.771s5.97,9.696,16.043,5.969C219.333,201.596,218.2,192.978,218.2,192.978z"/>
	<g id="XMLID_66_">
		<path id="XMLID_32_" style="fill:#606D7E;" d="M226.754,231.958c0,41.089-34.042,67.679-76.035,67.679
			c-41.992,0-76.034-26.59-76.034-67.679c0-41.084,34.042-81.105,76.034-81.105C192.712,150.853,226.754,190.874,226.754,231.958z"
			/>
		<path id="XMLID_31_" style="fill:#E8DFCE;" d="M111.957,179.71l39.369,91.421l38.157-93.241
			C189.483,177.89,147.489,150.635,111.957,179.71z"/>
		<path id="XMLID_30_" style="fill:#4A5F71;" d="M150.719,299.637c0.932,0,1.853-0.027,2.776-0.055l-2.169-86.279l-3.356,86.279
			C148.883,299.61,149.796,299.637,150.719,299.637z"/>
		<path id="XMLID_29_" style="fill:#E8DFCE;" d="M207.189,241.822h-0.001l-5.443-11.319c-2.001-4.161-5.277-4.163-7.28,0
			l-2.87,5.972l0,0l-0.842,1.748l-1.732,3.599h-0.001l-3.638,7.567h8.398h8.65h8.398L207.189,241.822z"/>
		<rect id="XMLID_28_" x="183.586" y="248.054" style="fill:#4A5F71;" width="29.217" height="6.589"/>
		<path id="XMLID_27_" style="fill:#E37C2F;" d="M158.772,237.089c0,12.292-3.605,20.247-8.053,20.247
			c-4.446,0-8.051-7.956-8.051-20.247c0-12.297,3.605-24.27,8.051-24.27C155.167,212.819,158.772,224.792,158.772,237.089z"/>
		<path id="XMLID_26_" style="fill:#E37C2F;" d="M159.821,210.359c0,7.017-4.074,11.56-9.102,11.56
			c-5.028,0-9.102-4.542-9.102-11.56c0-7.013,4.074-13.849,9.102-13.849C155.746,196.509,159.821,203.346,159.821,210.359z"/>
		<polygon id="XMLID_25_" style="fill:#FFFFFF;" points="151.434,206.193 135.127,227.343 113.722,196.259 135.127,191.925 		"/>
		<polygon id="XMLID_24_" style="fill:#FFFFFF;" points="150.416,206.193 166.723,227.343 188.128,196.259 166.723,191.925 		"/>
		<g id="XMLID_67_">
			<g id="XMLID_70_">
				<polygon id="XMLID_23_" style="fill:#4A5F71;" points="150.925,254.611 107.097,165.425 78.301,174.599 108.757,217.344 
					129.011,222.758 117.506,229.623 150.925,276.528 				"/>
			</g>
			<g id="XMLID_68_">
				<polygon id="XMLID_22_" style="fill:#4A5F71;" points="150.416,254.611 194.243,165.425 223.04,174.599 192.582,217.344 
					172.33,222.758 183.834,229.623 150.416,276.528 				"/>
			</g>
		</g>
	</g>
	<g id="XMLID_63_">
		<path id="XMLID_21_" style="fill:#E37B62;" d="M219.141,55.911c0,0,22.437,19.069,59.453,22.808c0,0,11.853,0.845,13.087,5.608
			c2.616,10.097-40.009,40.382-74.035,7.853C217.646,92.18,208.671,51.424,219.141,55.911z"/>
		<path id="XMLID_20_" style="fill:#E37B62;" d="M82.297,55.911c0,0-22.436,19.069-59.452,22.808c0,0-11.853,0.845-13.087,5.608
			c-2.617,10.097,40.008,40.382,74.034,7.853C83.792,92.18,92.766,51.424,82.297,55.911z"/>
	</g>
	<path id="XMLID_19_" style="fill:#E8DFCE;" d="M233.469,93.715c0-48.204-37.049-61.495-82.75-61.495
		c-45.702,0-82.748,13.29-82.748,61.495c0,37.335,45.735,113.065,82.748,113.065C189.064,206.78,233.469,128.067,233.469,93.715z"/>
	<g id="XMLID_57_">
		
			<ellipse id="XMLID_18_" transform="matrix(0.9624 -0.2717 0.2717 0.9624 -43.0065 43.4375)" style="fill:#F5F4EF;" cx="135.386" cy="177.051" rx="19.069" ry="15.327"/>
		<path id="XMLID_17_" style="fill:#3F1722;" d="M75.559,164.713c0,0,21.686,30.658,63.564-3.366c0,0,11.965-1.497,10.096,11.963
			C147.349,186.771,75.187,203.973,75.559,164.713z"/>
		
			<ellipse id="XMLID_16_" transform="matrix(-0.9624 -0.2717 0.2717 -0.9624 277.7614 392.5549)" style="fill:#F5F4EF;" cx="166.053" cy="177.051" rx="19.068" ry="15.328"/>
		<path id="XMLID_15_" style="fill:#3F1722;" d="M225.879,164.713c0,0-21.687,30.658-63.564-3.366c0,0-11.963-1.497-10.095,11.963
			C154.089,186.771,226.252,203.973,225.879,164.713z"/>
	</g>
	<path id="XMLID_14_" style="fill:#E37B62;" d="M170.866,162.375c0-7.717-9.02-9.847-20.147-9.847
		c-11.126,0-20.146,2.129-20.146,9.847c0,5.979,11.135,18.103,20.146,18.103C160.054,180.478,170.866,167.878,170.866,162.375z"/>
	<g id="XMLID_41_">
		<g id="XMLID_49_">
			<path id="XMLID_13_" style="opacity:0.49;fill:#442282;" d="M93.526,84.992c0,0,20.912-6.747,22.713,15.585
				C116.239,100.577,95.102,112.686,93.526,84.992z"/>
			<g id="XMLID_52_">
				<defs>
					<path id="XMLID_11_" d="M93.526,84.992c0,0,20.912-6.747,22.713,15.585C116.239,100.577,95.102,112.686,93.526,84.992z"/>
				</defs>
				<use xlink:href="#XMLID_11_"  style="overflow:visible;fill:#FFFFFF;"/>
				<clipPath id="XMLID_38_">
					<use xlink:href="#XMLID_11_"  style="overflow:visible;"/>
				</clipPath>
				<path id="XMLID_12_" style="clip-path:url(#XMLID_38_);fill:#19173E;" d="M96.346,89.905c0.682-5.866,5.987-10.072,11.848-9.393
					c5.867,0.677,10.073,5.984,9.393,11.851c-0.677,5.869-5.984,10.072-11.851,9.393C99.87,101.071,95.666,95.777,96.346,89.905z"/>
			</g>
			<path id="XMLID_10_" style="fill:#FFFFFF;" d="M105.726,89.792c0.176-1.52-0.913-2.894-2.435-3.067
				c-1.52-0.181-2.896,0.913-3.072,2.438c-0.177,1.515,0.914,2.889,2.436,3.067C104.172,92.406,105.552,91.317,105.726,89.792z"/>
			<path id="XMLID_9_" style="fill:#FFFFFF;" d="M110.792,95.962c0.127-1.088-0.652-2.066-1.739-2.194
				c-1.087-0.123-2.07,0.652-2.195,1.738c-0.127,1.088,0.652,2.074,1.739,2.195C109.685,97.828,110.667,97.051,110.792,95.962z"/>
		</g>
		<g id="XMLID_42_">
			<path id="XMLID_8_" style="opacity:0.49;fill:#442282;" d="M207.914,84.992c0,0-20.912-6.747-22.714,15.585
				C185.199,100.577,206.336,112.686,207.914,84.992z"/>
			<g id="XMLID_45_">
				<defs>
					<path id="XMLID_6_" d="M207.914,84.992c0,0-20.912-6.747-22.714,15.585C185.199,100.577,206.336,112.686,207.914,84.992z"/>
				</defs>
				<use xlink:href="#XMLID_6_"  style="overflow:visible;fill:#FFFFFF;"/>
				<clipPath id="XMLID_39_">
					<use xlink:href="#XMLID_6_"  style="overflow:visible;"/>
				</clipPath>
				<path id="XMLID_7_" style="clip-path:url(#XMLID_39_);fill:#19173E;" d="M205.093,89.905c-0.682-5.866-5.987-10.072-11.85-9.393
					c-5.866,0.677-10.071,5.984-9.392,11.851c0.677,5.869,5.984,10.072,11.849,9.393C201.568,101.071,205.772,95.777,205.093,89.905
					z"/>
			</g>
			<path id="XMLID_5_" style="fill:#FFFFFF;" d="M195.713,89.792c-0.178-1.52,0.913-2.894,2.435-3.067
				c1.52-0.181,2.894,0.913,3.071,2.438c0.177,1.515-0.913,2.889-2.435,3.067C197.266,92.406,195.888,91.317,195.713,89.792z"/>
			<path id="XMLID_4_" style="fill:#FFFFFF;" d="M190.646,95.962c-0.128-1.088,0.653-2.066,1.738-2.194
				c1.088-0.123,2.072,0.652,2.196,1.738c0.128,1.088-0.651,2.074-1.739,2.195C191.753,97.828,190.771,97.051,190.646,95.962z"/>
		</g>
	</g>
	<g id="XMLID_36_">
		<path id="XMLID_37_" style="fill:#3F1722;" d="M217.766,106.283h-5.009c-0.321,0-0.626,0.055-0.922,0.133
			c-0.224-0.524-0.438-1.066-0.699-1.52c-0.706-1.846-3.258-5.285-12.446-5.927c-2.163-0.15-6.532-0.404-11.481-0.404
			c-14.538,0-20.866,2.132-23.807,3.938c-2.269-3.168-6.284-6.381-12.417-6.381c-6.476,0-10.219,3.93-12.138,6.937
			c-2.522-1.894-8.554-4.494-24.621-4.494c-4.947,0-9.316,0.253-11.481,0.404c-9.188,0.642-11.74,4.081-12.446,5.927
			c-0.261,0.454-0.474,0.996-0.7,1.52c-0.296-0.078-0.598-0.133-0.919-0.133h-5.01c-2.018,0-3.653,1.635-3.653,3.654
			c0,2.019,1.635,3.652,3.653,3.652h4.195c-0.479,5.179,0.322,11.055,2.95,15.76c3.205,5.736,8.689,8.894,15.438,8.894
			c2.641,0,5.521-0.472,8.564-1.407c21.035-6.458,26.186-17.035,27.424-21.283c0.919-3.153,0.765-6.205-0.389-8.728
			c0.967-1.994,3.659-6.225,9.133-6.225c5.143,0,7.884,3.017,9.184,5.144c-1.664,2.696-2.031,6.185-0.974,9.809
			c1.238,4.249,6.389,14.825,27.424,21.283c3.041,0.935,5.923,1.407,8.562,1.407c6.751,0,12.234-3.158,15.438-8.894
			c2.628-4.705,3.431-10.581,2.951-15.76h4.195c2.018,0,3.653-1.633,3.653-3.652C221.419,107.918,219.784,106.283,217.766,106.283z
			 M135.796,113.674c-1.501,5.149-8.319,12.252-22.951,16.746c-7.752,2.378-13.192,0.973-16.168-4.349
			c-3.351-5.994-2.498-14.682-0.44-18.028l0.326-0.529l0.02-0.113c0.534-0.479,2.406-1.437,6.629-1.733
			c2.078-0.145,6.27-0.386,11.015-0.386c17.119,0,20.541,2.997,21.052,3.596C136.186,109.944,136.373,111.69,135.796,113.674z
			 M204.761,126.071c-2.976,5.322-8.416,6.726-16.168,4.349c-14.633-4.494-21.449-11.597-22.95-16.746
			c-0.578-1.984-0.39-3.729,0.515-4.795c0.513-0.599,3.934-3.596,21.052-3.596c4.744,0,8.937,0.241,11.015,0.386
			c4.221,0.296,6.093,1.254,6.628,1.733l0.023,0.113l0.325,0.529C207.259,111.389,208.112,120.077,204.761,126.071z"/>
	</g>
</g>
</svg>
