<?xml version="1.0" encoding="iso-8859-1"?>
<!-- Generator: Adobe Illustrator 19.0.0, SVG Export Plug-In . SVG Version: 6.00 Build 0)  -->
<svg version="1.1" id="Layer_1" xmlns="http://www.w3.org/2000/svg" xmlns:xlink="http://www.w3.org/1999/xlink" x="0px" y="0px"
	 viewBox="0 0 300 300" style="enable-background:new 0 0 300 300;" xml:space="preserve">
<g>
	<path id="XMLID_27_" style="fill:#3F1722;" d="M229.364,230.358c0,42.102-34.883,69.351-77.914,69.351
		c-43.03,0-77.912-27.249-77.912-69.351c0-42.1,34.883-83.111,77.912-83.111C194.481,147.247,229.364,188.257,229.364,230.358z"/>
	<path id="XMLID_26_" style="fill:#E8DFCE;" d="M110.901,176.814l40.341,64.961l39.1-66.821
		C190.343,174.954,147.312,147.023,110.901,176.814z"/>
	<g>
		<polygon id="XMLID_25_" style="fill:#5C2938;" points="151.834,238.595 114.753,171.317 105.96,149.527 80.73,168.259 
			109.564,201.896 122.779,201.896 115.549,208.879 151.834,251.21 		"/>
	</g>
	<polygon id="XMLID_24_" style="fill:#5C2938;" points="151.069,238.595 188.149,171.317 196.941,149.527 222.171,168.259 
		193.338,201.896 180.12,201.896 187.351,208.879 151.069,251.21 	"/>
	<path id="XMLID_23_" style="fill:#5C2938;" d="M150.435,299.689c0.341,0.002,0.675,0.019,1.015,0.019
		c0.812,0,1.616-0.029,2.425-0.048l-2.634-61.811L150.435,299.689z"/>
	<path id="XMLID_22_" style="fill:#E37C2F;" d="M157.583,193.87c0-3.484-2.826-6.308-6.307-6.308c-3.484,0-6.309,2.825-6.309,6.308
		c0,3.482,2.826,6.307,6.309,6.307C154.757,200.177,157.583,197.353,157.583,193.87z"/>
	<path id="XMLID_21_" style="fill:#E37C2F;" d="M148.415,191.366c0,0-14.926-7.159-21.239-9.83
		c-6.312-2.671-8.376,1.456-8.498,5.946c-0.121,4.491,1.336,17.48,4.613,23.183c3.277,5.704,9.236,0.907,11.409-0.486
		c4.733-3.034,14.32-14.201,14.32-14.201L148.415,191.366z"/>
	<path id="XMLID_20_" style="fill:#E37C2F;" d="M154.486,191.366c0,0,14.928-7.159,21.24-9.83c6.312-2.671,8.376,1.456,8.496,5.946
		c0.121,4.491-1.336,17.48-4.613,23.183c-3.277,5.704-9.237,0.907-11.408-0.486c-4.734-3.034-14.323-14.201-14.323-14.201
		L154.486,191.366z"/>
	<path id="XMLID_19_" style="fill:#E37C2F;" d="M204.114,243.331l-0.001-0.002l-5.577-11.599c-2.052-4.264-5.407-4.265-7.461,0
		l-2.941,6.119l0,0l-0.862,1.793l-1.775,3.687v0.002l-3.729,7.755h8.606h8.865h8.606L204.114,243.331z"/>
	<rect id="XMLID_18_" x="179.928" y="249.715" style="fill:#5C2938;" width="29.938" height="6.755"/>
	<path id="XMLID_17_" style="fill:#3F1722;" d="M94.488,29.17c0,0-33.792-1.921-42.625-27.841c0,0-12.866,5.377-1.153,23.041
		c0,0-8.45,1.151-11.329-3.072c0,0-3.071,8.832,6.528,20.16c0,0-4.224,3.074-7.296-0.958c0,0-2.303,10.943,8.64,15.935
		c0,0-8.448,2.303-2.687,8.447c5.759,6.146,22.08,19.586,36.097,17.089C94.68,79.475,100.824,48.178,94.488,29.17z"/>
	<path id="XMLID_16_" style="fill:#3F1722;" d="M208.414,29.17c0,0,33.793-1.921,42.626-27.841c0,0,12.864,5.377,1.153,23.041
		c0,0,8.448,1.151,11.327-3.072c0,0,3.071,8.832-6.528,20.16c0,0,4.224,3.074,7.296-0.958c0,0,2.303,10.943-8.642,15.935
		c0,0,8.449,2.303,2.69,8.447c-5.759,6.146-22.081,19.586-36.097,17.089C208.221,79.475,202.077,48.178,208.414,29.17z"/>
	<path id="XMLID_15_" style="fill:#A06F60;" d="M236.861,110.633c-4.245-22.034-4.422-59.43-14.648-73.528
		c-12.301-16.955-48.349-13.266-69.381-13.266c-0.273,0-0.557-0.003-0.835-0.003v-0.004c-0.186,0.001-0.362,0.001-0.546,0.001
		c-0.184,0-0.361,0-0.547-0.001v0.004c-0.278,0-0.562,0.003-0.833,0.003c-21.033,0-57.08-3.689-69.381,13.266
		c-10.228,14.098-10.404,51.494-14.65,73.528c-14.589,75.698,42.441,72.184,85.412,72.153
		C194.421,182.817,251.451,186.331,236.861,110.633z"/>
	<path id="XMLID_14_" style="fill:#3F1722;" d="M135.526,122.866c-11.647,16.198-35.92,18.665-54.216,5.51
		c-18.296-13.155-27.065-50.194-15.419-66.39c11.647-16.198,39.302-5.423,57.597,7.733
		C141.785,82.873,147.172,106.67,135.526,122.866z"/>
	<path id="XMLID_13_" style="opacity:0.49;fill:#442282;" d="M77.697,87.012c0,0,24.915-11.349,30.342,16.033
		C108.038,103.045,83.615,121.053,77.697,87.012z"/>
	<g>
		<defs>
			<path id="XMLID_11_" d="M77.697,87.012c0,0,24.915-11.349,30.342,16.033C108.038,103.045,83.615,121.053,77.697,87.012z"/>
		</defs>
		<use xlink:href="#XMLID_11_"  style="overflow:visible;fill:#FFFFFF;"/>
		<clipPath id="XMLID_29_">
			<use xlink:href="#XMLID_11_"  style="overflow:visible;"/>
		</clipPath>
		<circle id="XMLID_12_" style="clip-path:url(#XMLID_29_);fill:#19173E;" cx="95.21" cy="92.684" r="13.32"/>
	</g>
	<circle id="XMLID_10_" style="fill:#FFFFFF;" cx="90.029" cy="91.205" r="3.453"/>
	<circle id="XMLID_9_" style="fill:#FFFFFF;" cx="98.171" cy="98.112" r="2.467"/>
	<path id="XMLID_8_" style="fill:#3F1722;" d="M167.377,122.866c11.647,16.198,35.919,18.665,54.214,5.51
		c18.296-13.155,27.065-50.194,15.417-66.39c-11.647-16.198-39.301-5.423-57.595,7.733
		C161.116,82.873,155.731,106.67,167.377,122.866z"/>
	<path id="XMLID_7_" style="fill:#FFFFFF;" d="M225.206,87.012c0,0-24.916-11.349-30.343,16.033
		C194.863,103.045,219.286,121.053,225.206,87.012z"/>
	<g>
		<defs>
			<circle id="XMLID_5_" cx="207.691" cy="92.684" r="13.321"/>
		</defs>
		<clipPath id="XMLID_30_">
			<use xlink:href="#XMLID_5_"  style="overflow:visible;"/>
		</clipPath>
		<path id="XMLID_6_" style="clip-path:url(#XMLID_30_);fill:#19173E;" d="M225.206,87.012c0,0-24.916-11.349-30.343,16.033
			C194.863,103.045,219.286,121.053,225.206,87.012z"/>
	</g>
	<circle id="XMLID_4_" style="fill:#FFFFFF;" cx="212.872" cy="91.205" r="3.455"/>
	<circle id="XMLID_3_" style="fill:#FFFFFF;" cx="204.732" cy="98.112" r="2.467"/>
	<path id="XMLID_2_" style="fill:#D31E25;" d="M151.452,138.898l-12.908-28.614c0,0,4.766-4.44,12.66-4.44
		c7.4,0,13.156,4.44,13.156,4.44L151.452,138.898z"/>
	<path id="XMLID_1_" style="fill:#CCB5A7;" d="M198.502,25.109c-15.051-2.593-33.059-1.271-45.67-1.271
		c-0.273,0-0.557-0.003-0.835-0.003v-0.004c-0.186,0.001-0.362,0.001-0.546,0.001c-0.184,0-0.361,0-0.547-0.001v0.004
		c-0.278,0-0.562,0.003-0.833,0.003c-13.044,0-31.856-1.415-47.205,1.551c20.682,10.252,34.494,39.285,48.589,39.285
		C165.573,64.675,173.554,34.751,198.502,25.109z"/>
</g>
</svg>
