<?xml version="1.0" encoding="iso-8859-1"?>
<!-- Generator: Adobe Illustrator 19.0.0, SVG Export Plug-In . SVG Version: 6.00 Build 0)  -->
<svg version="1.1" id="Layer_1" xmlns="http://www.w3.org/2000/svg" xmlns:xlink="http://www.w3.org/1999/xlink" x="0px" y="0px"
	 viewBox="0 0 300 300" style="enable-background:new 0 0 300 300;" xml:space="preserve">
<g id="XMLID_36_">
	<path id="XMLID_34_" style="fill:#19173E;" d="M71.02,56.581c0,0-4.168-30.775-0.322-48.724c0,0,0.965-10.575,11.861-4.806
		c10.899,5.768,22.439,12.818,32.376,28.526L71.02,56.581z"/>
	<path id="XMLID_33_" style="fill:#606D7E;" d="M83.844,45.041c0,0-3.849-12.18-1.925-27.247c0,0,0.319-7.05,20.192,15.067
		C102.112,32.861,92.5,43.117,83.844,45.041z"/>
	<path id="XMLID_32_" style="fill:#19173E;" d="M236.081,56.581c0,0,4.166-30.775,0.319-48.724c0,0-0.962-10.575-11.861-4.806
		c-10.897,5.768-22.436,12.818-32.373,28.526L236.081,56.581z"/>
	<path id="XMLID_31_" style="fill:#606D7E;" d="M223.258,45.041c0,0,3.849-12.18,1.924-27.247c0,0-0.319-7.05-20.192,15.067
		C204.99,32.861,214.602,43.117,223.258,45.041z"/>
	<path id="XMLID_30_" style="fill:#E37C2F;" d="M236.196,227.181c0,44.662-37.001,73.562-82.648,73.562
		c-45.641,0-82.645-28.9-82.645-73.562c0-44.657,37.004-88.16,82.645-88.16C199.194,139.021,236.196,182.525,236.196,227.181z"/>
	<path id="XMLID_29_" style="fill:#DBA187;" d="M152.474,300.727c0.357,0.003,0.714,0.016,1.074,0.016
		c0.867,0,1.717-0.027,2.574-0.049l-2.797-65.563L152.474,300.727z"/>
	<path id="XMLID_28_" style="fill:#FFFFFF;" d="M205.208,159.655c-14.152-12.635-32.106-20.634-51.66-20.634
		c-20.326,0-38.932,8.645-53.326,22.161c10.048,28.862,35.614,96.938,53.108,96.734
		C170.987,257.708,195.506,189.073,205.208,159.655z"/>
	<path id="XMLID_27_" style="fill:#FFFFFF;" d="M206.334,255.29L206.334,255.29l-6.897-11.779c-2.538-4.332-6.082-4.046-7.887,0.641
		l-2.587,6.72l0,0l-0.755,1.974l-1.559,4.048l0,0l-3.271,8.519l9.097-0.741l9.373-0.761l9.1-0.744L206.334,255.29z"/>
	<polygon id="XMLID_26_" style="fill:#DBA187;" points="213.545,268.687 181.894,271.266 181.311,264.123 212.958,261.547 	"/>
	<path id="XMLID_25_" style="fill:#DBA187;" d="M148.439,265.928c0-2.214-1.796-4.01-4.007-4.01c-2.216,0-4.013,1.796-4.013,4.01
		c0,2.214,1.796,4.013,4.013,4.013C146.643,269.941,148.439,268.142,148.439,265.928z"/>
	<path id="XMLID_24_" style="fill:#DBA187;" d="M148.439,285.523c0-2.214-1.796-4.007-4.007-4.007c-2.216,0-4.013,1.794-4.013,4.007
		c0,2.216,1.796,4.01,4.013,4.01C146.643,289.533,148.439,287.74,148.439,285.523z"/>
	<path id="XMLID_23_" style="fill:#E8DFCE;" d="M223.43,181.914c-2.11,10.953-2.372,24.252-0.305,38.332
		c1.731,11.802,4.863,22.608,8.879,31.618c2.707-7.538,4.193-15.792,4.193-24.682C236.196,211.307,231.502,195.594,223.43,181.914z"
		/>
	<path id="XMLID_22_" style="fill:#E8DFCE;" d="M74.9,251.327c3.901-8.903,6.952-19.513,8.65-31.081
		c2.028-13.849,1.813-26.942-0.199-37.789c-7.884,13.552-12.448,29.063-12.448,44.725C70.903,235.862,72.315,243.936,74.9,251.327z"
		/>
	<g id="XMLID_60_">
		<path id="XMLID_21_" style="fill:#E8DFCE;" d="M153.995,157.254c-1.949-3.064-26.373-3.691-44.398-3.727
			c-3.282,2.328-6.42,4.883-9.375,7.655c3.435,9.863,8.68,24.303,14.797,39.033c13.647,18.186,22.496,17.614,22.496,17.614
			c20.045-25.833,19.148-51.668,19.148-51.668S157.114,162.153,153.995,157.254z"/>
		<path id="XMLID_20_" style="fill:#E8DFCE;" d="M197.504,153.527c-18.025,0.035-42.451,0.662-44.403,3.727
			c-3.118,4.899-2.669,8.906-2.669,8.906s-0.894,25.835,19.148,51.668c0,0,7.529,0.461,19.402-13.712
			c6.747-16.545,12.551-33.318,16.226-44.46C202.755,157.464,200.176,155.422,197.504,153.527z"/>
	</g>
	<path id="XMLID_19_" style="fill:#C2CBD4;" d="M256.383,101.126c-1.336-15.141-2.23-20.931-7.57-31.623
		c-14.811-29.625-48.103-53.446-94.307-54.337c-0.322-0.008-0.635,0.005-0.954,0.005c-0.316,0-0.63-0.013-0.951-0.005
		C106.392,16.057,73.1,39.878,58.292,69.503c-5.343,10.692-6.237,16.482-7.573,31.623c-1.32,14.958-0.701,40.957,12.025,47.655
		c25.388,13.361,52.641,24.584,89.856,24.584c0.322,0,0.635-0.014,0.951-0.016c0.319,0.003,0.632,0.016,0.954,0.016
		c37.211,0,64.464-11.223,89.853-24.584C257.084,142.083,257.702,116.084,256.383,101.126z"/>
	<path id="XMLID_18_" style="fill:#606D7E;" d="M103.077,80.612c-24.459-7.57-41.262-0.442-50.725,6.352
		c-0.668,3.877-1.118,8.317-1.633,14.162c-1.32,14.958-0.701,40.957,12.025,47.655c20.637,10.861,42.503,20.307,69.947,23.461
		c4.097-16.335,12.055-48.359,12.055-48.359S143.464,93.111,103.077,80.612z"/>
	<path id="XMLID_17_" style="fill:#19173E;" d="M108.524,82.855c-22.114-8.658-43.272,28.207-50.002,43.912
		c-2.726,6.366-2.173,12.66-0.57,17.916c1.371,1.701,2.939,3.121,4.792,4.097c11.779,6.199,23.963,11.932,37.351,16.3
		C121.587,137.1,129.196,90.946,108.524,82.855z"/>
	<g id="XMLID_50_">
		<path id="XMLID_16_" style="opacity:0.49;fill:#442282;" d="M85.357,95.523c0,0,21.275-7.802,24.033,15.141
			C109.39,110.664,88.102,123.998,85.357,95.523z"/>
		<g id="XMLID_53_">
			<defs>
				<path id="XMLID_14_" d="M85.357,95.523c0,0,21.275-7.802,24.033,15.141C109.39,110.664,88.102,123.998,85.357,95.523z"/>
			</defs>
			<use xlink:href="#XMLID_14_"  style="overflow:visible;fill:#FFFFFF;"/>
			<clipPath id="XMLID_37_">
				<use xlink:href="#XMLID_14_"  style="overflow:visible;"/>
			</clipPath>
			<path id="XMLID_15_" style="clip-path:url(#XMLID_37_);fill:#3F1722;" d="M88.457,100.471c0.472-6.074,5.763-10.624,11.837-10.16
				c6.071,0.463,10.621,5.763,10.158,11.834c-0.463,6.071-5.76,10.621-11.834,10.158C92.543,111.839,87.996,106.545,88.457,100.471z
				"/>
		</g>
		<path id="XMLID_13_" style="fill:#FFFFFF;" d="M98.121,99.975c0.12-1.57-1.058-2.944-2.631-3.067
			c-1.576-0.12-2.947,1.063-3.072,2.634c-0.12,1.576,1.06,2.95,2.639,3.072C96.627,102.731,98.003,101.551,98.121,99.975z"/>
		<path id="XMLID_12_" style="fill:#FFFFFF;" d="M103.595,106.128c0.084-1.123-0.758-2.105-1.884-2.192
			c-1.123-0.085-2.107,0.755-2.192,1.881c-0.087,1.126,0.758,2.107,1.887,2.192C102.526,108.094,103.507,107.254,103.595,106.128z"
			/>
	</g>
	<path id="XMLID_11_" style="fill:#606D7E;" d="M204.025,80.612c24.459-7.57,41.265-0.442,50.725,6.352
		c0.665,3.877,1.115,8.317,1.633,14.162c1.319,14.958,0.701,40.957-12.025,47.655c-20.634,10.861-42.503,20.307-69.947,23.461
		c-4.097-16.335-12.055-48.359-12.055-48.359S163.64,93.111,204.025,80.612z"/>
	<path id="XMLID_10_" style="fill:#19173E;" d="M198.578,82.855c22.114-8.658,43.271,28.207,50.002,43.912
		c2.729,6.366,2.173,12.66,0.57,17.916c-1.371,1.701-2.939,3.121-4.793,4.097c-11.777,6.199-23.963,11.932-37.351,16.3
		C185.517,137.1,177.906,90.946,198.578,82.855z"/>
	<g id="XMLID_41_">
		<path id="XMLID_9_" style="opacity:0.49;fill:#442282;" d="M221.748,95.523c0,0-21.277-7.802-24.039,15.141
			C197.709,110.664,219,123.998,221.748,95.523z"/>
		<g id="XMLID_44_">
			<defs>
				<path id="XMLID_7_" d="M221.748,95.523c0,0-21.277-7.802-24.039,15.141C197.709,110.664,219,123.998,221.748,95.523z"/>
			</defs>
			<use xlink:href="#XMLID_7_"  style="overflow:visible;fill:#FFFFFF;"/>
			<clipPath id="XMLID_38_">
				<use xlink:href="#XMLID_7_"  style="overflow:visible;"/>
			</clipPath>
			<path id="XMLID_8_" style="clip-path:url(#XMLID_38_);fill:#3F1722;" d="M218.645,100.471
				c-0.469-6.074-5.763-10.624-11.834-10.16c-6.074,0.463-10.621,5.763-10.16,11.834c0.461,6.071,5.76,10.621,11.831,10.158
				C214.559,111.839,219.103,106.545,218.645,100.471z"/>
		</g>
		<path id="XMLID_6_" style="fill:#FFFFFF;" d="M208.981,99.975c-0.123-1.57,1.058-2.944,2.634-3.067
			c1.57-0.12,2.944,1.063,3.067,2.634c0.12,1.576-1.058,2.95-2.636,3.072C210.472,102.731,209.101,101.551,208.981,99.975z"/>
		<path id="XMLID_5_" style="fill:#FFFFFF;" d="M203.507,106.128c-0.087-1.123,0.758-2.105,1.884-2.192
			c1.123-0.085,2.105,0.755,2.189,1.881c0.09,1.126-0.755,2.107-1.881,2.192C204.576,108.094,203.592,107.254,203.507,106.128z"/>
	</g>
	<path id="XMLID_4_" style="fill:#FFFFFF;" d="M194.664,154.618c0,22.373-18.832,27.122-42.064,27.122
		c-23.229,0-42.061-4.749-42.061-27.122c0-22.371,18.832-53.901,42.061-53.901C175.831,100.717,194.664,132.247,194.664,154.618z"/>
	<path id="XMLID_3_" style="fill:#3F1722;" d="M144.249,157.693c0,0-9.353-4.01-15.588,3.116
		c-6.235,7.126-2.227,16.924,0.889,24.053c3.119,7.123-3.563,16.477-7.57,8.906c0,0,0.891,9.798,11.58,5.787
		c10.689-4.007,4.899-26.721,4.899-26.721S154.492,171.5,144.249,157.693z"/>
	<path id="XMLID_2_" style="fill:#3F1722;" d="M162.852,157.693c0,0,9.353-4.01,15.588,3.116c6.235,7.126,2.227,16.924-0.891,24.053
		c-3.116,7.123,3.566,16.477,7.573,8.906c0,0-0.891,9.798-11.58,5.787c-10.689-4.007-4.899-26.721-4.899-26.721
		S152.611,171.5,162.852,157.693z"/>
	<path id="XMLID_1_" style="fill:#19173E;" d="M175.335,151.782c0-7.096-11.256-8.563-21.853-8.563
		c-10.599,0-21.855,1.466-21.855,8.563s11.256,20.053,21.855,20.053C164.079,171.836,175.335,158.878,175.335,151.782z"/>
</g>
</svg>
